<svg width="24" height="24" viewBox="0 0 24 24" fill="none" xmlns="http://www.w3.org/2000/svg">
<path d="M12 0C9.62663 0 7.30655 0.703788 5.33316 2.02236C3.35977 3.34094 1.8217 5.21508 0.913451 7.4078C0.00519943 9.60051 -0.232441 12.0133 0.230582 14.3411C0.693605 16.6689 1.83649 18.807 3.51472 20.4853C5.19295 22.1635 7.33115 23.3064 9.65892 23.7694C11.9867 24.2324 14.3995 23.9948 16.5922 23.0865C18.7849 22.1783 20.6591 20.6402 21.9776 18.6668C23.2962 16.6934 24 14.3734 24 12C23.9966 8.81843 22.7313 5.76814 20.4816 3.51843C18.2319 1.26872 15.1816 0.00335979 12 0ZM12 22.1538C9.99176 22.1538 8.02862 21.5583 6.35883 20.4426C4.68904 19.3269 3.38759 17.7411 2.61907 15.8857C1.85055 14.0303 1.64947 11.9887 2.04126 10.0191C2.43305 8.04943 3.40011 6.24019 4.82015 4.82015C6.24019 3.4001 8.04943 2.43304 10.0191 2.04126C11.9887 1.64947 14.0303 1.85055 15.8857 2.61907C17.7411 3.38759 19.3269 4.68903 20.4426 6.35882C21.5583 8.02861 22.1538 9.99176 22.1538 12C22.1508 14.692 21.08 17.2729 19.1765 19.1765C17.2729 21.08 14.692 22.1508 12 22.1538ZM13.8462 17.5385C13.8462 17.7833 13.7489 18.0181 13.5758 18.1912C13.4027 18.3643 13.1679 18.4615 12.9231 18.4615C12.4334 18.4615 11.9639 18.267 11.6177 17.9208C11.2714 17.5746 11.0769 17.105 11.0769 16.6154V12C10.8321 12 10.5973 11.9027 10.4242 11.7296C10.2511 11.5565 10.1538 11.3217 10.1538 11.0769C10.1538 10.8321 10.2511 10.5973 10.4242 10.4242C10.5973 10.2511 10.8321 10.1538 11.0769 10.1538C11.5666 10.1538 12.0361 10.3483 12.3824 10.6946C12.7286 11.0408 12.9231 11.5104 12.9231 12V16.6154C13.1679 16.6154 13.4027 16.7126 13.5758 16.8857C13.7489 17.0589 13.8462 17.2936 13.8462 17.5385ZM10.1538 6.92308C10.1538 6.64922 10.2351 6.38152 10.3872 6.15382C10.5393 5.92613 10.7556 5.74866 11.0086 5.64386C11.2616 5.53906 11.54 5.51164 11.8086 5.56507C12.0772 5.61849 12.3239 5.75036 12.5175 5.944C12.7112 6.13765 12.843 6.38436 12.8965 6.65295C12.9499 6.92154 12.9225 7.19994 12.8177 7.45294C12.7129 7.70595 12.5354 7.9222 12.3077 8.07434C12.08 8.22649 11.8123 8.30769 11.5385 8.30769C11.1712 8.30769 10.8191 8.16181 10.5594 7.90215C10.2997 7.64248 10.1538 7.2903 10.1538 6.92308Z" fill="white"/>
</svg>
