<svg width="24" height="24" viewBox="0 0 24 24" fill="none" xmlns="http://www.w3.org/2000/svg">
<g clip-path="url(#clip0_2129_1735)">
<path d="M5 14C5 14.552 5.448 15 6 15H9V18C9 18.552 9.448 19 10 19C10.552 19 11 18.552 11 18V15H14C14.552 15 15 14.552 15 14C15 13.448 14.552 13 14 13H11V10C11 9.448 10.552 9 10 9C9.448 9 9 9.448 9 10V13H6C5.448 13 5 13.448 5 14ZM24 15V5C24 2.243 21.757 0 19 0H9C6.554 0 4.521 1.768 4.092 4.092C1.768 4.521 0 6.554 0 9V19C0 21.757 2.243 24 5 24H15C17.446 24 19.479 22.232 19.908 19.908C22.232 19.479 24 17.446 24 15ZM5 6H15C16.654 6 18 7.346 18 9V19C18 20.654 16.654 22 15 22H5C3.346 22 2 20.654 2 19V9C2 7.346 3.346 6 5 6ZM22 15C22 16.302 21.161 17.402 20 17.816V9C20 6.243 17.757 4 15 4H6.184C6.598 2.839 7.698 2 9 2H19C20.654 2 22 3.346 22 5V15Z" fill="white"/>
</g>
<defs>
<clipPath id="clip0_2129_1735">
<rect width="24" height="24" fill="white" transform="matrix(1 0 0 -1 0 24)"/>
</clipPath>
</defs>
</svg>
