<svg width="18" height="16" viewBox="0 0 18 16" fill="none" xmlns="http://www.w3.org/2000/svg">
<path d="M15.9231 2.08696H13.5242L12.3447 0.309565C12.2815 0.214393 12.1959 0.13635 12.0956 0.0823527C11.9952 0.0283549 11.8831 6.86999e-05 11.7692 0H6.23077C6.11691 6.86999e-05 6.00482 0.0283549 5.90444 0.0823527C5.80406 0.13635 5.71848 0.214393 5.65529 0.309565L4.4749 2.08696H2.07692C1.52609 2.08696 0.997815 2.30683 0.608317 2.69821C0.218818 3.08959 0 3.62042 0 4.17391V13.913C0 14.4665 0.218818 14.9974 0.608317 15.3887C0.997815 15.7801 1.52609 16 2.07692 16H15.9231C16.4739 16 17.0022 15.7801 17.3917 15.3887C17.7812 14.9974 18 14.4665 18 13.913V4.17391C18 3.62042 17.7812 3.08959 17.3917 2.69821C17.0022 2.30683 16.4739 2.08696 15.9231 2.08696ZM16.6154 13.913C16.6154 14.0975 16.5424 14.2745 16.4126 14.4049C16.2828 14.5354 16.1067 14.6087 15.9231 14.6087H2.07692C1.89331 14.6087 1.71722 14.5354 1.58739 14.4049C1.45755 14.2745 1.38462 14.0975 1.38462 13.913V4.17391C1.38462 3.98941 1.45755 3.81247 1.58739 3.68201C1.71722 3.55155 1.89331 3.47826 2.07692 3.47826H4.84615C4.96016 3.47834 5.07242 3.45012 5.17297 3.39611C5.27351 3.34211 5.35923 3.26399 5.4225 3.1687L6.60115 1.3913H11.398L12.5775 3.1687C12.6408 3.26399 12.7265 3.34211 12.827 3.39611C12.9276 3.45012 13.0398 3.47834 13.1538 3.47826H15.9231C16.1067 3.47826 16.2828 3.55155 16.4126 3.68201C16.5424 3.81247 16.6154 3.98941 16.6154 4.17391V13.913ZM9 4.86957C8.24691 4.86957 7.51073 5.09396 6.88456 5.51438C6.25839 5.93479 5.77035 6.53235 5.48215 7.23147C5.19396 7.9306 5.11855 8.6999 5.26547 9.44208C5.41239 10.1843 5.77504 10.866 6.30755 11.4011C6.84007 11.9362 7.51854 12.3006 8.25716 12.4482C8.99578 12.5959 9.76138 12.5201 10.4571 12.2305C11.1529 11.9409 11.7476 11.4505 12.166 10.8213C12.5844 10.1921 12.8077 9.45238 12.8077 8.69565C12.8065 7.68126 12.405 6.70875 11.6912 5.99147C10.9773 5.27419 10.0095 4.87072 9 4.86957ZM9 11.1304C8.52076 11.1304 8.05228 10.9876 7.65381 10.7201C7.25534 10.4526 6.94477 10.0723 6.76137 9.6274C6.57797 9.1825 6.52999 8.69295 6.62348 8.22065C6.71698 7.74835 6.94775 7.31451 7.28663 6.974C7.6255 6.63349 8.05725 6.4016 8.52728 6.30765C8.99731 6.21371 9.48451 6.26192 9.92727 6.44621C10.37 6.63049 10.7485 6.94256 11.0147 7.34296C11.281 7.74336 11.4231 8.2141 11.4231 8.69565C11.4231 9.3414 11.1678 9.96069 10.7134 10.4173C10.259 10.8739 9.64264 11.1304 9 11.1304Z" fill="white"/>
</svg>
