<svg width="25" height="24" viewBox="0 0 25 24" fill="none" xmlns="http://www.w3.org/2000/svg">
<path d="M25 8.64214C25 8.89681 24.8987 9.14105 24.7183 9.32113C24.5379 9.50121 24.2932 9.60238 24.0381 9.60238H22.1144V11.5229C22.1144 11.7775 22.0131 12.0218 21.8327 12.2018C21.6523 12.3819 21.4077 12.4831 21.1526 12.4831C20.8975 12.4831 20.6528 12.3819 20.4725 12.2018C20.2921 12.0218 20.1907 11.7775 20.1907 11.5229V9.60238H18.267C18.0119 9.60238 17.7673 9.50121 17.5869 9.32113C17.4065 9.14105 17.3052 8.89681 17.3052 8.64214C17.3052 8.38747 17.4065 8.14323 17.5869 7.96315C17.7673 7.78307 18.0119 7.6819 18.267 7.6819H20.1907V5.76143C20.1907 5.50675 20.2921 5.26251 20.4725 5.08244C20.6528 4.90236 20.8975 4.80119 21.1526 4.80119C21.4077 4.80119 21.6523 4.90236 21.8327 5.08244C22.0131 5.26251 22.1144 5.50675 22.1144 5.76143V7.6819H24.0381C24.2932 7.6819 24.5379 7.78307 24.7183 7.96315C24.8987 8.14323 25 8.38747 25 8.64214ZM13.4578 3.84095H14.4196V4.80119C14.4196 5.05586 14.5209 5.3001 14.7013 5.48018C14.8817 5.66026 15.1264 5.76143 15.3815 5.76143C15.6366 5.76143 15.8812 5.66026 16.0616 5.48018C16.242 5.3001 16.3433 5.05586 16.3433 4.80119V3.84095H17.3052C17.5603 3.84095 17.8049 3.73978 17.9853 3.5597C18.1657 3.37962 18.267 3.13538 18.267 2.88071C18.267 2.62604 18.1657 2.3818 17.9853 2.20172C17.8049 2.02164 17.5603 1.92048 17.3052 1.92048H16.3433V0.960238C16.3433 0.705567 16.242 0.461327 16.0616 0.281247C15.8812 0.101168 15.6366 0 15.3815 0C15.1264 0 14.8817 0.101168 14.7013 0.281247C14.5209 0.461327 14.4196 0.705567 14.4196 0.960238V1.92048H13.4578C13.2027 1.92048 12.958 2.02164 12.7776 2.20172C12.5972 2.3818 12.4959 2.62604 12.4959 2.88071C12.4959 3.13538 12.5972 3.37962 12.7776 3.5597C12.958 3.73978 13.2027 3.84095 13.4578 3.84095ZM22.207 15.4838C22.319 15.614 22.394 15.7717 22.4242 15.9405C22.4545 16.1094 22.4388 16.2833 22.3789 16.4441C21.7115 18.2612 20.5964 19.8812 19.1364 21.1546C17.6764 22.428 15.9187 23.3138 14.0254 23.7302C12.1321 24.1466 10.1642 24.0801 8.30341 23.537C6.4426 22.9939 4.7488 21.9917 3.37833 20.6227C2.00785 19.2538 1.00485 17.5622 0.461898 15.7043C-0.0810568 13.8463 -0.146475 11.8817 0.27168 9.9918C0.689835 8.10192 1.57809 6.34763 2.85447 4.89084C4.13086 3.43404 5.75424 2.32168 7.57481 1.65641C7.73505 1.59782 7.90802 1.58285 8.07597 1.61303C8.24393 1.64321 8.40081 1.71745 8.53053 1.82814C8.66026 1.93883 8.75815 2.08198 8.81416 2.2429C8.87017 2.40383 8.88229 2.57674 8.84927 2.74388C8.5122 4.44706 8.60051 6.20691 9.1064 7.86793C9.61229 9.52896 10.5202 11.04 11.7499 12.2676C12.9795 13.4953 14.4931 14.4016 16.157 14.9067C17.8208 15.4117 19.5836 15.4999 21.2896 15.1634C21.4573 15.1306 21.6306 15.1431 21.7919 15.1994C21.9531 15.2557 22.0964 15.3539 22.207 15.4838ZM19.8757 17.2699C19.6605 17.2807 19.4441 17.2867 19.2289 17.2867C15.9132 17.2832 12.7344 15.9665 10.3902 13.6258C8.04587 11.285 6.72764 8.11125 6.72477 4.80119C6.72477 4.58633 6.72477 4.37028 6.7416 4.15543C5.46184 4.89062 4.3688 5.91009 3.54716 7.13483C2.72553 8.35958 2.19737 9.75672 2.00359 11.218C1.80982 12.6793 1.95564 14.1655 2.42975 15.5615C2.90387 16.9575 3.69355 18.2258 4.73761 19.2681C5.78167 20.3104 7.05209 21.0988 8.45043 21.5721C9.84877 22.0454 11.3375 22.191 12.8012 21.9975C14.265 21.8041 15.6645 21.2768 16.8913 20.4565C18.1181 19.6363 19.1393 18.5451 19.8757 17.2675V17.2699Z" fill="white"/>
</svg>
