<svg width="24" height="24" viewBox="0 0 24 24" fill="none" xmlns="http://www.w3.org/2000/svg">
<path d="M14 9.81818C14 10.9298 13.692 11.9607 13.168 12.8225L10.293 9.68618C10.105 9.48109 10 9.204 10 8.91491V4.47382C12.282 4.97891 14 7.17927 14 9.81818ZM8 9.36655V4.47382C5.45 5.03891 3.604 7.72036 4.073 10.7651C4.398 12.8749 5.893 14.6302 7.802 15.12C9.272 15.4964 10.662 15.156 11.754 14.3662L8.585 10.9091C8.21 10.5 8 9.94473 8 9.36655ZM19 4.36364H17C16.447 4.36364 16 4.85236 16 5.45455C16 6.05673 16.447 6.54545 17 6.54545H19C19.553 6.54545 20 6.05673 20 5.45455C20 4.85236 19.553 4.36364 19 4.36364ZM19 8.72727H17C16.447 8.72727 16 9.216 16 9.81818C16 10.4204 16.447 10.9091 17 10.9091H19C19.553 10.9091 20 10.4204 20 9.81818C20 9.216 19.553 8.72727 19 8.72727ZM19 13.0909H17C16.447 13.0909 16 13.5796 16 14.1818C16 14.784 16.447 15.2727 17 15.2727H19C19.553 15.2727 20 14.784 20 14.1818C20 13.5796 19.553 13.0909 19 13.0909ZM24 5.45455V14.1818C24 17.1895 21.757 19.6364 19 19.6364H13V21.8182H17C17.553 21.8182 18 22.3069 18 22.9091C18 23.5113 17.553 24 17 24H7C6.447 24 6 23.5113 6 22.9091C6 22.3069 6.447 21.8182 7 21.8182H11V19.6364H5C2.243 19.6364 0 17.1895 0 14.1818V5.45455C0 2.44691 2.243 0 5 0H19C21.757 0 24 2.44691 24 5.45455ZM22 5.45455C22 3.65018 20.654 2.18182 19 2.18182H5C3.346 2.18182 2 3.65018 2 5.45455V14.1818C2 15.9862 3.346 17.4545 5 17.4545H19C20.654 17.4545 22 15.9862 22 14.1818V5.45455Z" fill="white"/>
</svg>
