<svg width="24" height="24" viewBox="0 0 24 24" fill="none" xmlns="http://www.w3.org/2000/svg">
<path d="M19 0H5C2.239 0 0 2.44255 0 5.45455V14.1818C0 17.1938 2.239 19.6364 5 19.6364H11V21.8182H7C6.447 21.8182 6 22.3069 6 22.9091C6 23.5113 6.447 24 7 24H17C17.553 24 18 23.5113 18 22.9091C18 22.3069 17.553 21.8182 17 21.8182H13V19.6364H19C21.761 19.6364 24 17.1938 24 14.1818V5.45455C24 2.44255 21.761 0 19 0ZM6.802 15.6644C4.893 15.1745 3.398 13.4193 3.073 11.3095C2.604 8.26473 4.45 5.58327 7 5.01818V9.91091C7 10.4891 7.211 11.0444 7.586 11.4535L10.755 14.9105C9.662 15.7004 8.272 16.0407 6.802 15.6644ZM12.169 13.368L9.294 10.2316C9.106 10.0265 9.001 9.74945 9.001 9.46036V5.01927C11.283 5.52436 13.001 7.72473 13.001 10.3636C13.001 11.4753 12.693 12.5062 12.169 13.368ZM20.001 15.2727H17.001C16.449 15.2727 16.001 14.784 16.001 14.1818C16.001 13.5796 16.449 13.0909 17.001 13.0909H20.001C20.553 13.0909 21.001 13.5796 21.001 14.1818C21.001 14.784 20.553 15.2727 20.001 15.2727ZM20.001 10.9091H17.001C16.449 10.9091 16.001 10.4204 16.001 9.81818C16.001 9.216 16.449 8.72727 17.001 8.72727H20.001C20.553 8.72727 21.001 9.216 21.001 9.81818C21.001 10.4204 20.553 10.9091 20.001 10.9091ZM20.001 6.54545H17.001C16.449 6.54545 16.001 6.05673 16.001 5.45455C16.001 4.85236 16.449 4.36364 17.001 4.36364H20.001C20.553 4.36364 21.001 4.85236 21.001 5.45455C21.001 6.05673 20.553 6.54545 20.001 6.54545Z" fill="#2277F0"/>
<path d="M19 0H5C2.239 0 0 2.44255 0 5.45455V14.1818C0 17.1938 2.239 19.6364 5 19.6364H11V21.8182H7C6.447 21.8182 6 22.3069 6 22.9091C6 23.5113 6.447 24 7 24H17C17.553 24 18 23.5113 18 22.9091C18 22.3069 17.553 21.8182 17 21.8182H13V19.6364H19C21.761 19.6364 24 17.1938 24 14.1818V5.45455C24 2.44255 21.761 0 19 0ZM6.802 15.6644C4.893 15.1745 3.398 13.4193 3.073 11.3095C2.604 8.26473 4.45 5.58327 7 5.01818V9.91091C7 10.4891 7.211 11.0444 7.586 11.4535L10.755 14.9105C9.662 15.7004 8.272 16.0407 6.802 15.6644ZM12.169 13.368L9.294 10.2316C9.106 10.0265 9.001 9.74945 9.001 9.46036V5.01927C11.283 5.52436 13.001 7.72473 13.001 10.3636C13.001 11.4753 12.693 12.5062 12.169 13.368ZM20.001 15.2727H17.001C16.449 15.2727 16.001 14.784 16.001 14.1818C16.001 13.5796 16.449 13.0909 17.001 13.0909H20.001C20.553 13.0909 21.001 13.5796 21.001 14.1818C21.001 14.784 20.553 15.2727 20.001 15.2727ZM20.001 10.9091H17.001C16.449 10.9091 16.001 10.4204 16.001 9.81818C16.001 9.216 16.449 8.72727 17.001 8.72727H20.001C20.553 8.72727 21.001 9.216 21.001 9.81818C21.001 10.4204 20.553 10.9091 20.001 10.9091ZM20.001 6.54545H17.001C16.449 6.54545 16.001 6.05673 16.001 5.45455C16.001 4.85236 16.449 4.36364 17.001 4.36364H20.001C20.553 4.36364 21.001 4.85236 21.001 5.45455C21.001 6.05673 20.553 6.54545 20.001 6.54545Z" fill="black" fill-opacity="0.2"/>
</svg>
