<svg width="21" height="16" viewBox="0 0 21 16" fill="none" xmlns="http://www.w3.org/2000/svg">
<path d="M20.1923 0H0.807692C0.593479 0 0.388039 0.0842856 0.236568 0.234315C0.0850959 0.384344 0 0.587827 0 0.8V14.4C0 14.8243 0.170192 15.2313 0.473135 15.5314C0.776078 15.8314 1.18696 16 1.61538 16H19.3846C19.813 16 20.2239 15.8314 20.5269 15.5314C20.8298 15.2313 21 14.8243 21 14.4V0.8C21 0.587827 20.9149 0.384344 20.7634 0.234315C20.612 0.0842856 20.4065 0 20.1923 0ZM18.1155 1.6L10.5 8.515L2.88447 1.6H18.1155ZM19.3846 14.4H1.61538V2.619L9.9538 10.19C10.1028 10.3255 10.2977 10.4007 10.5 10.4007C10.7023 10.4007 10.8972 10.3255 11.0462 10.19L19.3846 2.619V14.4Z" fill="white"/>
</svg>
