<svg width="26" height="24" viewBox="0 0 26 24" fill="none" xmlns="http://www.w3.org/2000/svg">
<path d="M18.9559 0C17.7365 0.0187735 16.5437 0.3557 15.498 0.976755C14.4522 1.59781 13.5906 2.481 13 3.53714C12.4094 2.481 11.5478 1.59781 10.502 0.976755C9.45627 0.3557 8.26346 0.0187735 7.04407 0C5.10021 0.0835951 3.26877 0.925287 1.94989 2.34119C0.631004 3.75709 -0.0681244 5.63211 0.00524241 7.55661C0.00524241 14.8185 11.8695 23.2058 12.3741 23.5616L13 24L13.6259 23.5616C14.1305 23.2079 25.9948 14.8185 25.9948 7.55661C26.0681 5.63211 25.369 3.75709 24.0501 2.34119C22.7312 0.925287 20.8998 0.0835951 18.9559 0ZM13 21.3611C9.47734 18.7565 2.17104 12.3575 2.17104 7.55661C2.09701 6.2004 2.56777 4.87024 3.48065 3.85623C4.39353 2.84222 5.67446 2.22663 7.04407 2.14372C8.41368 2.22663 9.69461 2.84222 10.6075 3.85623C11.5204 4.87024 11.9911 6.2004 11.9171 7.55661H14.0829C14.0089 6.2004 14.4796 4.87024 15.3925 3.85623C16.3054 2.84222 17.5863 2.22663 18.9559 2.14372C20.3255 2.22663 21.6065 2.84222 22.5193 3.85623C23.4322 4.87024 23.903 6.2004 23.829 7.55661C23.829 12.3596 16.5227 18.7565 13 21.3611Z" fill="white"/>
</svg>
