<svg width="24" height="24" viewBox="0 0 24 24" fill="none" xmlns="http://www.w3.org/2000/svg">
<path d="M11.9999 13.6804C11.2043 13.6804 10.4412 13.9965 9.87862 14.5591C9.31601 15.1217 8.99994 15.8848 8.99994 16.6804V23.7064H14.9999V16.6804C14.9999 15.8848 14.6839 15.1217 14.1213 14.5591C13.5587 13.9965 12.7956 13.6804 11.9999 13.6804Z" fill="#2277F0"/>
<path d="M11.9999 13.6804C11.2043 13.6804 10.4412 13.9965 9.87862 14.5591C9.31601 15.1217 8.99994 15.8848 8.99994 16.6804V23.7064H14.9999V16.6804C14.9999 15.8848 14.6839 15.1217 14.1213 14.5591C13.5587 13.9965 12.7956 13.6804 11.9999 13.6804Z" fill="black" fill-opacity="0.2"/>
<path d="M13.338 0.513475C12.9707 0.182911 12.4941 0 12 0C11.5059 0 11.0293 0.182911 10.662 0.513475L0 10.1095V20.5095C0 21.3582 0.337142 22.1721 0.937258 22.7722C1.53737 23.3723 2.35131 23.7095 3.2 23.7095H7V16.6805C7 15.3544 7.52678 14.0826 8.46447 13.1449C9.40215 12.2073 10.6739 11.6805 12 11.6805C13.3261 11.6805 14.5979 12.2073 15.5355 13.1449C16.4732 14.0826 17 15.3544 17 16.6805V23.7065H20.8C21.6487 23.7065 22.4626 23.3693 23.0627 22.7692C23.6629 22.1691 24 21.3552 24 20.5065V10.1065L13.338 0.513475Z" fill="#2277F0"/>
<path d="M13.338 0.513475C12.9707 0.182911 12.4941 0 12 0C11.5059 0 11.0293 0.182911 10.662 0.513475L0 10.1095V20.5095C0 21.3582 0.337142 22.1721 0.937258 22.7722C1.53737 23.3723 2.35131 23.7095 3.2 23.7095H7V16.6805C7 15.3544 7.52678 14.0826 8.46447 13.1449C9.40215 12.2073 10.6739 11.6805 12 11.6805C13.3261 11.6805 14.5979 12.2073 15.5355 13.1449C16.4732 14.0826 17 15.3544 17 16.6805V23.7065H20.8C21.6487 23.7065 22.4626 23.3693 23.0627 22.7692C23.6629 22.1691 24 21.3552 24 20.5065V10.1065L13.338 0.513475Z" fill="black" fill-opacity="0.2"/>
</svg>
