<svg width="24" height="24" viewBox="0 0 24 24" fill="none" xmlns="http://www.w3.org/2000/svg">
<path d="M23.121 9.05305L15.536 1.4625C14.5972 0.52593 13.3257 0 12 0C10.6743 0 9.40276 0.52593 8.464 1.4625L0.879011 9.05305C0.599437 9.331 0.377782 9.66171 0.226894 10.026C0.0760072 10.3903 -0.0011104 10.781 1.20795e-05 11.1753V20.9982C1.20795e-05 21.7943 0.316082 22.5578 0.878691 23.1208C1.4413 23.6837 2.20436 24 3.00001 24H21C21.7956 24 22.5587 23.6837 23.1213 23.1208C23.6839 22.5578 24 21.7943 24 20.9982V11.1753C24.0011 10.781 23.924 10.3903 23.7731 10.026C23.6222 9.66171 23.4006 9.331 23.121 9.05305ZM15 21.9988H9V18.0624C9 17.2663 9.31607 16.5028 9.87868 15.9399C10.4413 15.3769 11.2044 15.0606 12 15.0606C12.7956 15.0606 13.5587 15.3769 14.1213 15.9399C14.6839 16.5028 15 17.2663 15 18.0624V21.9988ZM22 20.9982C22 21.2636 21.8946 21.5181 21.7071 21.7057C21.5196 21.8934 21.2652 21.9988 21 21.9988H17V18.0624C17 16.7356 16.4732 15.463 15.5355 14.5248C14.5978 13.5865 13.3261 13.0594 12 13.0594C10.6739 13.0594 9.40215 13.5865 8.46447 14.5248C7.52679 15.463 7 16.7356 7 18.0624V21.9988H3.00001C2.73479 21.9988 2.48044 21.8934 2.2929 21.7057C2.10537 21.5181 2.00001 21.2636 2.00001 20.9982V11.1753C2.00094 10.9101 2.1062 10.656 2.29301 10.4679L9.878 2.88035C10.4417 2.31894 11.2047 2.00377 12 2.00377C12.7953 2.00377 13.5583 2.31894 14.122 2.88035L21.707 10.4709C21.8931 10.6583 21.9983 10.9112 22 11.1753V20.9982Z" fill="white"/>
</svg>
