<svg width="20" height="17" viewBox="0 0 20 17" fill="none" xmlns="http://www.w3.org/2000/svg">
<path d="M18 0H1.5C1.10218 0 0.720644 0.158035 0.43934 0.43934C0.158035 0.720644 0 1.10218 0 1.5V15C0 15.3978 0.158035 15.7794 0.43934 16.0607C0.720644 16.342 1.10218 16.5 1.5 16.5H18C18.3978 16.5 18.7794 16.342 19.0607 16.0607C19.342 15.7794 19.5 15.3978 19.5 15V1.5C19.5 1.10218 19.342 0.720644 19.0607 0.43934C18.7794 0.158035 18.3978 0 18 0ZM18 1.5V11.1328L15.5559 8.68969C15.4166 8.55036 15.2513 8.43984 15.0693 8.36444C14.8872 8.28904 14.6922 8.25023 14.4952 8.25023C14.2981 8.25023 14.1031 8.28904 13.9211 8.36444C13.739 8.43984 13.5737 8.55036 13.4344 8.68969L11.5594 10.5647L7.43438 6.43969C7.1531 6.1586 6.77172 6.0007 6.37406 6.0007C5.97641 6.0007 5.59503 6.1586 5.31375 6.43969L1.5 10.2534V1.5H18ZM1.5 12.375L6.375 7.5L13.875 15H1.5V12.375ZM18 15H15.9966L12.6216 11.625L14.4966 9.75L18 13.2544V15ZM11.25 5.625C11.25 5.4025 11.316 5.18499 11.4396 4.99998C11.5632 4.81498 11.7389 4.67078 11.9445 4.58564C12.15 4.50049 12.3762 4.47821 12.5945 4.52162C12.8127 4.56502 13.0132 4.67217 13.1705 4.8295C13.3278 4.98684 13.435 5.18729 13.4784 5.40552C13.5218 5.62375 13.4995 5.84995 13.4144 6.05552C13.3292 6.26109 13.185 6.43679 13 6.5604C12.815 6.68402 12.5975 6.75 12.375 6.75C12.0766 6.75 11.7905 6.63147 11.5795 6.4205C11.3685 6.20952 11.25 5.92337 11.25 5.625Z" fill="#77777A"/>
</svg>
