<svg width="24" height="24" viewBox="0 0 24 24" fill="none" xmlns="http://www.w3.org/2000/svg">
<path d="M12 0C9.62663 0 7.30655 0.703788 5.33316 2.02236C3.35977 3.34094 1.8217 5.21508 0.913451 7.4078C0.00519941 9.60051 -0.232441 12.0133 0.230582 14.3411C0.693605 16.6689 1.83649 18.807 3.51472 20.4853C5.19295 22.1635 7.33115 23.3064 9.65892 23.7694C11.9867 24.2324 14.3995 23.9948 16.5922 23.0865C18.7849 22.1783 20.6591 20.6402 21.9776 18.6668C23.2962 16.6934 24 14.3734 24 12C23.9963 8.81853 22.7309 5.76841 20.4812 3.51877C18.2316 1.26912 15.1815 0.00366459 12 0ZM22.1538 12C22.1546 12.9364 22.0253 13.8684 21.7696 14.7692H17.3262C17.6092 12.9339 17.6092 11.0661 17.3262 9.23077H21.7696C22.0253 10.1316 22.1546 11.0636 22.1538 12ZM9 16.6154H15C14.4089 18.5522 13.3827 20.3282 12 21.8077C10.6178 20.3279 9.59171 18.552 9 16.6154ZM8.55 14.7692C8.23309 12.9367 8.23309 11.0633 8.55 9.23077H15.4592C15.7761 11.0633 15.7761 12.9367 15.4592 14.7692H8.55ZM1.84616 12C1.84536 11.0636 1.97467 10.1316 2.23039 9.23077H6.67385C6.39077 11.0661 6.39077 12.9339 6.67385 14.7692H2.23039C1.97467 13.8684 1.84536 12.9364 1.84616 12ZM15 7.38461H9C9.59111 5.44778 10.6173 3.67175 12 2.19231C13.3822 3.67214 14.4083 5.44804 15 7.38461ZM21.0381 7.38461H16.9281C16.4101 5.48412 15.537 3.69886 14.355 2.12308C15.7831 2.46615 17.1202 3.11397 18.2745 4.02214C19.4288 4.93031 20.3731 6.07734 21.0427 7.38461H21.0381ZM9.645 2.12308C8.463 3.69886 7.58994 5.48412 7.07193 7.38461H2.95731C3.62686 6.07734 4.57116 4.93031 5.72549 4.02214C6.87982 3.11397 8.21688 2.46615 9.645 2.12308ZM2.95731 16.6154H7.07193C7.58994 18.5159 8.463 20.3011 9.645 21.8769C8.21688 21.5338 6.87982 20.886 5.72549 19.9779C4.57116 19.0697 3.62686 17.9227 2.95731 16.6154ZM14.355 21.8769C15.537 20.3011 16.4101 18.5159 16.9281 16.6154H21.0427C20.3731 17.9227 19.4288 19.0697 18.2745 19.9779C17.1202 20.886 15.7831 21.5338 14.355 21.8769Z" fill="white"/>
</svg>
