<svg width="24" height="24" viewBox="0 0 24 24" fill="none" xmlns="http://www.w3.org/2000/svg">
<g clip-path="url(#clip0_572_2561)">
<path d="M0 3V11H11V0H3C2.20435 0 1.44129 0.31607 0.87868 0.87868C0.31607 1.44129 0 2.20435 0 3ZM3 3H8V8H3V3Z" fill="white"/>
<path d="M21 0H13V11H24V3C24 2.20435 23.6839 1.44129 23.1213 0.87868C22.5587 0.31607 21.7956 0 21 0ZM21 8H16V3H21V8Z" fill="white"/>
<path d="M0 21C0 21.7956 0.31607 22.5587 0.87868 23.1213C1.44129 23.6839 2.20435 24 3 24H11V13H0V21ZM3 16H8V21H3V16Z" fill="white"/>
<path d="M13 24H21C21.7956 24 22.5587 23.6839 23.1213 23.1213C23.6839 22.5587 24 21.7956 24 21V13H13V24ZM16 16H21V21H16V16Z" fill="white"/>
</g>
<defs>
<clipPath id="clip0_572_2561">
<rect width="24" height="24" fill="white"/>
</clipPath>
</defs>
</svg>
