<svg width="18" height="24" viewBox="0 0 18 24" fill="none" xmlns="http://www.w3.org/2000/svg">
<path d="M9 1C10.9321 1 12.5 2.56791 12.5 4.5V10.5C12.5 12.4321 10.9321 14 9 14C7.06791 14 5.5 12.4321 5.5 10.5V4.5C5.5 2.56791 7.06791 1 9 1ZM8.875 18.5469L7.99902 18.4375C4.05433 17.946 1 14.5783 1 10.5V8.625C1 8.55385 1.05385 8.5 1.125 8.5C1.19615 8.5 1.25 8.55385 1.25 8.625V10.5C1.25 14.7788 4.72115 18.25 9 18.25C13.2788 18.25 16.75 14.7788 16.75 10.5V8.625C16.75 8.55385 16.8038 8.5 16.875 8.5C16.9462 8.5 17 8.55385 17 8.625V10.5C17 14.5783 13.9457 17.946 10.001 18.4375L9.125 18.5469V22.75H12.375C12.4462 22.75 12.5 22.8038 12.5 22.875C12.5 22.9462 12.4462 23 12.375 23H5.625C5.55385 23 5.5 22.9462 5.5 22.875C5.5 22.8038 5.55385 22.75 5.625 22.75H8.875V18.5469Z" stroke="white" stroke-width="2"/>
</svg>
