<svg width="24" height="24" viewBox="0 0 24 24" fill="none" xmlns="http://www.w3.org/2000/svg">
<path d="M12 2.3999C10.0125 2.3999 8.39999 4.0124 8.39999 5.9999V10.7999C8.39999 12.7874 10.0125 14.3999 12 14.3999C13.9875 14.3999 15.6 12.7874 15.6 10.7999V5.9999C15.6 4.0124 13.9875 2.3999 12 2.3999ZM6.59999 9.2999C6.59999 8.80115 6.19874 8.3999 5.69999 8.3999C5.20124 8.3999 4.79999 8.80115 4.79999 9.2999V10.7999C4.79999 14.4712 7.54874 17.5012 11.1 17.9437V19.7999H9.29999C8.80124 19.7999 8.39999 20.2012 8.39999 20.6999C8.39999 21.1987 8.80124 21.5999 9.29999 21.5999H14.7C15.1987 21.5999 15.6 21.1987 15.6 20.6999C15.6 20.2012 15.1987 19.7999 14.7 19.7999H12.9V17.9437C16.4512 17.5012 19.2 14.4712 19.2 10.7999V9.2999C19.2 8.80115 18.7987 8.3999 18.3 8.3999C17.8012 8.3999 17.4 8.80115 17.4 9.2999V10.7999C17.4 13.7812 14.9812 16.1999 12 16.1999C9.01874 16.1999 6.59999 13.7812 6.59999 10.7999V9.2999Z" fill="#2277F0"/>
<path d="M12 2.3999C10.0125 2.3999 8.39999 4.0124 8.39999 5.9999V10.7999C8.39999 12.7874 10.0125 14.3999 12 14.3999C13.9875 14.3999 15.6 12.7874 15.6 10.7999V5.9999C15.6 4.0124 13.9875 2.3999 12 2.3999ZM6.59999 9.2999C6.59999 8.80115 6.19874 8.3999 5.69999 8.3999C5.20124 8.3999 4.79999 8.80115 4.79999 9.2999V10.7999C4.79999 14.4712 7.54874 17.5012 11.1 17.9437V19.7999H9.29999C8.80124 19.7999 8.39999 20.2012 8.39999 20.6999C8.39999 21.1987 8.80124 21.5999 9.29999 21.5999H14.7C15.1987 21.5999 15.6 21.1987 15.6 20.6999C15.6 20.2012 15.1987 19.7999 14.7 19.7999H12.9V17.9437C16.4512 17.5012 19.2 14.4712 19.2 10.7999V9.2999C19.2 8.80115 18.7987 8.3999 18.3 8.3999C17.8012 8.3999 17.4 8.80115 17.4 9.2999V10.7999C17.4 13.7812 14.9812 16.1999 12 16.1999C9.01874 16.1999 6.59999 13.7812 6.59999 10.7999V9.2999Z" fill="black" fill-opacity="0.2"/>
</svg>
