<svg width="15" height="16" viewBox="0 0 15 16" fill="none" xmlns="http://www.w3.org/2000/svg">
<path d="M14.769 0.125142C14.6971 0.069834 14.6134 0.0314183 14.5243 0.0128093C14.4352 -0.00579965 14.3429 -0.00411317 14.2545 0.0177409L4.6545 2.38797C4.5247 2.42001 4.40946 2.49399 4.32711 2.59813C4.24476 2.70227 4.20002 2.83061 4.2 2.96275V11.1163C3.69948 10.7861 3.10155 10.6304 2.50121 10.6742C1.90088 10.718 1.33257 10.9586 0.886584 11.3579C0.440597 11.7572 0.142511 12.2922 0.0396853 12.878C-0.06314 13.4638 0.0351933 14.0667 0.319062 14.5909C0.602931 15.1152 1.05605 15.5307 1.60644 15.7715C2.15682 16.0123 2.7729 16.0645 3.35678 15.9199C3.94067 15.7753 4.45888 15.4421 4.82908 14.9733C5.19927 14.5045 5.40022 13.927 5.4 13.3325V6.98103L13.8 4.90708V8.74611C13.2995 8.41583 12.7015 8.26022 12.1012 8.30399C11.5009 8.34776 10.9326 8.58841 10.4866 8.9877C10.0406 9.38699 9.74251 9.92202 9.63968 10.5078C9.53686 11.0935 9.63519 11.6964 9.91906 12.2207C10.2029 12.7449 10.656 13.1605 11.2064 13.4013C11.7568 13.6421 12.3729 13.6943 12.9568 13.5497C13.5407 13.4051 14.0589 13.0719 14.4291 12.6031C14.7993 12.1343 15.0002 11.5568 15 10.9623V0.592522C15 0.502398 14.9792 0.413456 14.9392 0.332465C14.8992 0.251475 14.841 0.180568 14.769 0.125142ZM2.7 14.8139C2.40333 14.8139 2.11332 14.727 1.86665 14.5642C1.61997 14.4015 1.42772 14.1701 1.31418 13.8994C1.20065 13.6287 1.17095 13.3309 1.22883 13.0435C1.2867 12.7561 1.42956 12.4922 1.63934 12.285C1.84912 12.0778 2.1164 11.9367 2.40737 11.8796C2.69834 11.8224 2.99994 11.8518 3.27403 11.9639C3.54812 12.076 3.78239 12.2659 3.94721 12.5095C4.11203 12.7531 4.2 13.0395 4.2 13.3325C4.2 13.7254 4.04197 14.1022 3.76066 14.38C3.47936 14.6578 3.09783 14.8139 2.7 14.8139ZM5.4 5.75888V3.42569L13.8 1.35174V3.68493L5.4 5.75888ZM12.3 12.4437C12.0033 12.4437 11.7133 12.3568 11.4666 12.194C11.22 12.0312 11.0277 11.7999 10.9142 11.5292C10.8007 11.2585 10.7709 10.9606 10.8288 10.6733C10.8867 10.3859 11.0296 10.122 11.2393 9.91477C11.4491 9.7076 11.7164 9.56651 12.0074 9.50935C12.2983 9.45219 12.5999 9.48153 12.874 9.59365C13.1481 9.70577 13.3824 9.89565 13.5472 10.1393C13.712 10.3829 13.8 10.6693 13.8 10.9623C13.8 11.3552 13.642 11.732 13.3607 12.0098C13.0794 12.2876 12.6978 12.4437 12.3 12.4437Z" fill="#2277F0"/>
<path d="M14.769 0.125142C14.6971 0.069834 14.6134 0.0314183 14.5243 0.0128093C14.4352 -0.00579965 14.3429 -0.00411317 14.2545 0.0177409L4.6545 2.38797C4.5247 2.42001 4.40946 2.49399 4.32711 2.59813C4.24476 2.70227 4.20002 2.83061 4.2 2.96275V11.1163C3.69948 10.7861 3.10155 10.6304 2.50121 10.6742C1.90088 10.718 1.33257 10.9586 0.886584 11.3579C0.440597 11.7572 0.142511 12.2922 0.0396853 12.878C-0.06314 13.4638 0.0351933 14.0667 0.319062 14.5909C0.602931 15.1152 1.05605 15.5307 1.60644 15.7715C2.15682 16.0123 2.7729 16.0645 3.35678 15.9199C3.94067 15.7753 4.45888 15.4421 4.82908 14.9733C5.19927 14.5045 5.40022 13.927 5.4 13.3325V6.98103L13.8 4.90708V8.74611C13.2995 8.41583 12.7015 8.26022 12.1012 8.30399C11.5009 8.34776 10.9326 8.58841 10.4866 8.9877C10.0406 9.38699 9.74251 9.92202 9.63968 10.5078C9.53686 11.0935 9.63519 11.6964 9.91906 12.2207C10.2029 12.7449 10.656 13.1605 11.2064 13.4013C11.7568 13.6421 12.3729 13.6943 12.9568 13.5497C13.5407 13.4051 14.0589 13.0719 14.4291 12.6031C14.7993 12.1343 15.0002 11.5568 15 10.9623V0.592522C15 0.502398 14.9792 0.413456 14.9392 0.332465C14.8992 0.251475 14.841 0.180568 14.769 0.125142ZM2.7 14.8139C2.40333 14.8139 2.11332 14.727 1.86665 14.5642C1.61997 14.4015 1.42772 14.1701 1.31418 13.8994C1.20065 13.6287 1.17095 13.3309 1.22883 13.0435C1.2867 12.7561 1.42956 12.4922 1.63934 12.285C1.84912 12.0778 2.1164 11.9367 2.40737 11.8796C2.69834 11.8224 2.99994 11.8518 3.27403 11.9639C3.54812 12.076 3.78239 12.2659 3.94721 12.5095C4.11203 12.7531 4.2 13.0395 4.2 13.3325C4.2 13.7254 4.04197 14.1022 3.76066 14.38C3.47936 14.6578 3.09783 14.8139 2.7 14.8139ZM5.4 5.75888V3.42569L13.8 1.35174V3.68493L5.4 5.75888ZM12.3 12.4437C12.0033 12.4437 11.7133 12.3568 11.4666 12.194C11.22 12.0312 11.0277 11.7999 10.9142 11.5292C10.8007 11.2585 10.7709 10.9606 10.8288 10.6733C10.8867 10.3859 11.0296 10.122 11.2393 9.91477C11.4491 9.7076 11.7164 9.56651 12.0074 9.50935C12.2983 9.45219 12.5999 9.48153 12.874 9.59365C13.1481 9.70577 13.3824 9.89565 13.5472 10.1393C13.712 10.3829 13.8 10.6693 13.8 10.9623C13.8 11.3552 13.642 11.732 13.3607 12.0098C13.0794 12.2876 12.6978 12.4437 12.3 12.4437Z" fill="black" fill-opacity="0.2"/>
</svg>
