<svg width="28" height="24" viewBox="0 0 28 24" fill="none" xmlns="http://www.w3.org/2000/svg">
<path d="M25.8462 0H2.15385C1.58261 0 1.03477 0.229869 0.630847 0.63904C0.226922 1.04821 0 1.60316 0 2.18182V21.8182C0 22.3968 0.226922 22.9518 0.630847 23.361C1.03477 23.7701 1.58261 24 2.15385 24H25.8462C26.4174 24 26.9652 23.7701 27.3692 23.361C27.7731 22.9518 28 22.3968 28 21.8182V2.18182C28 1.60316 27.7731 1.04821 27.3692 0.63904C26.9652 0.229869 26.4174 0 25.8462 0ZM25.8462 21.8182H2.15385V2.18182H25.8462V21.8182ZM21.5385 7.63636C21.5385 7.92569 21.425 8.20317 21.223 8.40775C21.0211 8.61234 20.7472 8.72727 20.4615 8.72727H7.53846C7.25284 8.72727 6.97892 8.61234 6.77696 8.40775C6.575 8.20317 6.46154 7.92569 6.46154 7.63636C6.46154 7.34704 6.575 7.06956 6.77696 6.86497C6.97892 6.66039 7.25284 6.54545 7.53846 6.54545H20.4615C20.7472 6.54545 21.0211 6.66039 21.223 6.86497C21.425 7.06956 21.5385 7.34704 21.5385 7.63636ZM21.5385 12C21.5385 12.2893 21.425 12.5668 21.223 12.7714C21.0211 12.976 20.7472 13.0909 20.4615 13.0909H7.53846C7.25284 13.0909 6.97892 12.976 6.77696 12.7714C6.575 12.5668 6.46154 12.2893 6.46154 12C6.46154 11.7107 6.575 11.4332 6.77696 11.2286C6.97892 11.024 7.25284 10.9091 7.53846 10.9091H20.4615C20.7472 10.9091 21.0211 11.024 21.223 11.2286C21.425 11.4332 21.5385 11.7107 21.5385 12ZM21.5385 16.3636C21.5385 16.653 21.425 16.9304 21.223 17.135C21.0211 17.3396 20.7472 17.4545 20.4615 17.4545H7.53846C7.25284 17.4545 6.97892 17.3396 6.77696 17.135C6.575 16.9304 6.46154 16.653 6.46154 16.3636C6.46154 16.0743 6.575 15.7968 6.77696 15.5922C6.97892 15.3877 7.25284 15.2727 7.53846 15.2727H20.4615C20.7472 15.2727 21.0211 15.3877 21.223 15.5922C21.425 15.7968 21.5385 16.0743 21.5385 16.3636Z" fill="white"/>
</svg>
