<svg width="20" height="20" viewBox="0 0 20 20" fill="none" xmlns="http://www.w3.org/2000/svg">
<path d="M19.9041 13.4983L17.6309 5.69208C17.1455 4.02222 16.0878 2.55505 14.6261 1.52406C13.1645 0.493072 11.3828 -0.0424819 9.56484 0.00263403C7.74683 0.04775 5.99689 0.670944 4.59355 1.77303C3.1902 2.87512 2.21409 4.39276 1.82057 6.08443L0.0623068 13.6232C-0.022771 13.9885 -0.0206958 14.3672 0.0683793 14.7316C0.157454 15.096 0.331256 15.4366 0.576962 15.7284C0.822668 16.0203 1.13401 16.2558 1.48801 16.4177C1.84202 16.5796 2.22965 16.6637 2.62232 16.6638H5.77599C5.97666 17.6053 6.51281 18.4518 7.29359 19.0598C8.07437 19.6678 9.05176 20 10.0602 20C11.0686 20 12.046 19.6678 12.8267 19.0598C13.6075 18.4518 14.1437 17.6053 14.3443 16.6638H17.3782C17.7823 16.6636 18.1808 16.5745 18.5427 16.4034C18.9047 16.2323 19.2202 15.9839 19.4648 15.6775C19.7094 15.3711 19.8764 15.015 19.9527 14.637C20.0291 14.259 20.0119 13.8693 19.9041 13.4983ZM10.0602 18.3298C9.51961 18.3277 8.99294 18.1664 8.55223 17.8682C8.11151 17.57 7.77826 17.1493 7.59808 16.6638H12.5223C12.3421 17.1493 12.0088 17.57 11.5681 17.8682C11.1274 18.1664 10.6007 18.3277 10.0602 18.3298ZM18.0733 14.6687C17.9918 14.7717 17.886 14.8551 17.7646 14.9123C17.6431 14.9694 17.5093 14.9987 17.3739 14.9977L2.62232 14.9977C2.4914 14.9977 2.36216 14.9697 2.24413 14.9157C2.1261 14.8617 2.0223 14.7832 1.94039 14.6859C1.85849 14.5886 1.80056 14.475 1.77089 14.3535C1.74123 14.232 1.74057 14.1057 1.76898 13.9839L3.52724 6.44512C3.83706 5.11747 4.6038 3.92658 5.70557 3.06178C6.80735 2.19698 8.18092 1.70789 9.60794 1.67228C11.035 1.63666 12.4335 2.05655 13.5813 2.8652C14.7291 3.67386 15.5602 4.82486 15.9426 6.13524L18.2158 13.9415C18.2529 14.0649 18.2594 14.1949 18.2347 14.3211C18.2099 14.4473 18.1547 14.5663 18.0733 14.6687Z" fill="black"/>
</svg>
