<svg width="21" height="24" viewBox="0 0 21 24" fill="none" xmlns="http://www.w3.org/2000/svg">
<path d="M10.5 11.5556C9.76456 11.5558 9.05377 11.8249 8.49754 12.3137C7.94131 12.8024 7.5768 13.4782 7.47062 14.2175C7.36444 14.9568 7.52368 15.7102 7.91925 16.34C8.31482 16.9699 8.92029 17.4341 9.625 17.6478V19.5556C9.625 19.7913 9.71719 20.0174 9.88128 20.1841C10.0454 20.3508 10.2679 20.4444 10.5 20.4444C10.7321 20.4444 10.9546 20.3508 11.1187 20.1841C11.2828 20.0174 11.375 19.7913 11.375 19.5556V17.6478C12.0797 17.4341 12.6852 16.9699 13.0807 16.34C13.4763 15.7102 13.6356 14.9568 13.5294 14.2175C13.4232 13.4782 13.0587 12.8024 12.5025 12.3137C11.9462 11.8249 11.2354 11.5558 10.5 11.5556ZM10.5 16C10.2404 16 9.98665 15.9218 9.77081 15.7753C9.55497 15.6288 9.38675 15.4205 9.28741 15.1769C9.18807 14.9333 9.16208 14.6652 9.21272 14.4065C9.26336 14.1479 9.38837 13.9103 9.57192 13.7239C9.75548 13.5374 9.98934 13.4104 10.2439 13.359C10.4985 13.3075 10.7624 13.3339 11.0023 13.4348C11.2421 13.5357 11.4471 13.7066 11.5913 13.9259C11.7355 14.1452 11.8125 14.403 11.8125 14.6667C11.8125 15.0203 11.6742 15.3594 11.4281 15.6095C11.1819 15.8595 10.8481 16 10.5 16ZM19.25 8H15.75V5.33333C15.75 3.91885 15.1969 2.56229 14.2123 1.5621C13.2277 0.561903 11.8924 0 10.5 0C9.10761 0 7.77226 0.561903 6.78769 1.5621C5.80312 2.56229 5.25 3.91885 5.25 5.33333V8H1.75C1.28587 8 0.840752 8.1873 0.512563 8.5207C0.184374 8.8541 0 9.30628 0 9.77778V22.2222C0 22.6937 0.184374 23.1459 0.512563 23.4793C0.840752 23.8127 1.28587 24 1.75 24H19.25C19.7141 24 20.1592 23.8127 20.4874 23.4793C20.8156 23.1459 21 22.6937 21 22.2222V9.77778C21 9.30628 20.8156 8.8541 20.4874 8.5207C20.1592 8.1873 19.7141 8 19.25 8ZM7 5.33333C7 4.39034 7.36875 3.48597 8.02513 2.81918C8.6815 2.15238 9.57174 1.77778 10.5 1.77778C11.4283 1.77778 12.3185 2.15238 12.9749 2.81918C13.6313 3.48597 14 4.39034 14 5.33333V8H7V5.33333ZM19.25 22.2222H1.75V9.77778H19.25V22.2222Z" fill="white"/>
</svg>
