<svg width="25" height="24" viewBox="0 0 25 24" fill="none" xmlns="http://www.w3.org/2000/svg">
<path d="M24.8583 22.5396C23.0295 19.3833 20.2113 17.1201 16.9224 16.0472C18.5492 15.0804 19.8132 13.6072 20.5202 11.8538C21.2271 10.1004 21.338 8.16383 20.8358 6.34145C20.3336 4.51906 19.246 2.91164 17.7401 1.76604C16.2342 0.620441 14.3933 0 12.5 0C10.6067 0 8.76578 0.620441 7.25989 1.76604C5.75401 2.91164 4.66645 4.51906 4.16422 6.34145C3.662 8.16383 3.77288 10.1004 4.47984 11.8538C5.1868 13.6072 6.45075 15.0804 8.07758 16.0472C4.78869 17.1189 1.9705 19.3821 0.141734 22.5396C0.0746698 22.6488 0.0301868 22.7703 0.0109092 22.8969C-0.00836843 23.0235 -0.00205003 23.1527 0.0294915 23.2768C0.0610331 23.4009 0.117159 23.5175 0.194558 23.6196C0.271956 23.7218 0.36906 23.8074 0.480139 23.8714C0.591218 23.9355 0.714023 23.9767 0.841309 23.9926C0.968594 24.0085 1.09778 23.9988 1.22125 23.964C1.34471 23.9293 1.45996 23.8702 1.56018 23.7903C1.66041 23.7103 1.74358 23.6112 1.80479 23.4986C4.06703 19.5955 8.06558 17.2652 12.5 17.2652C16.9344 17.2652 20.933 19.5955 23.1952 23.4986C23.2564 23.6112 23.3396 23.7103 23.4398 23.7903C23.54 23.8702 23.6553 23.9293 23.7788 23.964C23.9022 23.9988 24.0314 24.0085 24.1587 23.9926C24.286 23.9767 24.4088 23.9355 24.5199 23.8714C24.6309 23.8074 24.728 23.7218 24.8054 23.6196C24.8828 23.5175 24.939 23.4009 24.9705 23.2768C25.002 23.1527 25.0084 23.0235 24.9891 22.8969C24.9698 22.7703 24.9253 22.6488 24.8583 22.5396ZM5.77572 8.63422C5.77572 7.30652 6.17009 6.00863 6.90896 4.90469C7.64784 3.80075 8.69803 2.94033 9.92673 2.43224C11.1554 1.92416 12.5075 1.79122 13.8118 2.05024C15.1162 2.30926 16.3144 2.94861 17.2548 3.88743C18.1952 4.82626 18.8356 6.02239 19.0951 7.32458C19.3545 8.62677 19.2214 9.97652 18.7124 11.2032C18.2035 12.4298 17.3416 13.4782 16.2358 14.2158C15.13 14.9535 13.8299 15.3472 12.5 15.3472C10.7172 15.3453 9.00796 14.6374 7.74732 13.3789C6.48669 12.1204 5.77763 10.414 5.77572 8.63422Z" fill="white"/>
</svg>
