<svg width="314" height="55" viewBox="0 0 314 55" fill="none" xmlns="http://www.w3.org/2000/svg">
<path d="M4.66437 22.8962V31.2194C4.66437 32.1393 3.61932 32.8861 2.33219 32.8861C1.04505 32.8861 0 32.1393 0 31.2194V22.8962C0 21.9763 1.04505 21.2295 2.33219 21.2295C3.61932 21.2295 4.66437 21.9763 4.66437 22.8962Z" fill="#2277F0"/>
<path d="M4.66437 22.8962V31.2194C4.66437 32.1393 3.61932 32.8861 2.33219 32.8861C1.04505 32.8861 0 32.1393 0 31.2194V22.8962C0 21.9763 1.04505 21.2295 2.33219 21.2295C3.61932 21.2295 4.66437 21.9763 4.66437 22.8962Z" fill="black" fill-opacity="0.2"/>
<path d="M13.4788 24.4714V29.6442C13.4788 30.5641 12.4338 31.3109 11.1466 31.3109C9.85951 31.3109 8.81445 30.5641 8.81445 29.6442V24.4714C8.81445 23.5515 9.85951 22.8047 11.1466 22.8047C12.4338 22.8047 13.4788 23.5515 13.4788 24.4714Z" fill="#2277F0"/>
<path d="M13.4788 24.4714V29.6442C13.4788 30.5641 12.4338 31.3109 11.1466 31.3109C9.85951 31.3109 8.81445 30.5641 8.81445 29.6442V24.4714C8.81445 23.5515 9.85951 22.8047 11.1466 22.8047C12.4338 22.8047 13.4788 23.5515 13.4788 24.4714Z" fill="black" fill-opacity="0.2"/>
<path d="M22.2947 15.0915V39.0231C22.2947 39.9429 21.2497 40.6898 19.9626 40.6898C18.6754 40.6898 17.6304 39.9429 17.6304 39.0231V15.0915C17.6304 14.1716 18.6754 13.4248 19.9626 13.4248C21.2497 13.4248 22.2947 14.1716 22.2947 15.0915Z" fill="#2277F0"/>
<path d="M22.2947 15.0915V39.0231C22.2947 39.9429 21.2497 40.6898 19.9626 40.6898C18.6754 40.6898 17.6304 39.9429 17.6304 39.0231V15.0915C17.6304 14.1716 18.6754 13.4248 19.9626 13.4248C21.2497 13.4248 22.2947 14.1716 22.2947 15.0915Z" fill="black" fill-opacity="0.2"/>
<path d="M31.1102 20.7653V33.3493C31.1102 34.2691 30.0651 35.016 28.778 35.016C27.4909 35.016 26.4458 34.2691 26.4458 33.3493V20.7653C26.4458 19.8455 27.4909 19.0986 28.778 19.0986C30.0651 19.0986 31.1102 19.8455 31.1102 20.7653Z" fill="#2277F0"/>
<path d="M31.1102 20.7653V33.3493C31.1102 34.2691 30.0651 35.016 28.778 35.016C27.4909 35.016 26.4458 34.2691 26.4458 33.3493V20.7653C26.4458 19.8455 27.4909 19.0986 28.778 19.0986C30.0651 19.0986 31.1102 19.8455 31.1102 20.7653Z" fill="black" fill-opacity="0.2"/>
<path d="M39.9276 11.3288V42.7858C39.9276 43.7056 38.8825 44.4524 37.5954 44.4524C36.3082 44.4524 35.2632 43.7056 35.2632 42.7858V11.3288C35.2632 10.4089 36.3082 9.66211 37.5954 9.66211C38.8825 9.66211 39.9276 10.4089 39.9276 11.3288Z" fill="#2277F0"/>
<path d="M39.9276 11.3288V42.7858C39.9276 43.7056 38.8825 44.4524 37.5954 44.4524C36.3082 44.4524 35.2632 43.7056 35.2632 42.7858V11.3288C35.2632 10.4089 36.3082 9.66211 37.5954 9.66211C38.8825 9.66211 39.9276 10.4089 39.9276 11.3288Z" fill="black" fill-opacity="0.2"/>
<path d="M48.7415 15.9362V38.1783C48.7415 39.0982 47.6965 39.845 46.4093 39.845C45.1222 39.845 44.0771 39.0982 44.0771 38.1783V15.9362C44.0771 15.0164 45.1222 14.2695 46.4093 14.2695C47.6965 14.2695 48.7415 15.0164 48.7415 15.9362Z" fill="#2277F0"/>
<path d="M48.7415 15.9362V38.1783C48.7415 39.0982 47.6965 39.845 46.4093 39.845C45.1222 39.845 44.0771 39.0982 44.0771 38.1783V15.9362C44.0771 15.0164 45.1222 14.2695 46.4093 14.2695C47.6965 14.2695 48.7415 15.0164 48.7415 15.9362Z" fill="black" fill-opacity="0.2"/>
<path d="M57.557 7.22233V46.8919C57.557 47.8117 56.5119 48.5585 55.2248 48.5585C53.9376 48.5585 52.8926 47.8117 52.8926 46.8919V7.22233C52.8926 6.3025 53.9376 5.55566 55.2248 5.55566C56.5119 5.55566 57.557 6.3025 57.557 7.22233Z" fill="#2277F0"/>
<path d="M57.557 7.22233V46.8919C57.557 47.8117 56.5119 48.5585 55.2248 48.5585C53.9376 48.5585 52.8926 47.8117 52.8926 46.8919V7.22233C52.8926 6.3025 53.9376 5.55566 55.2248 5.55566C56.5119 5.55566 57.557 6.3025 57.557 7.22233Z" fill="black" fill-opacity="0.2"/>
<path d="M66.3738 19.5397V34.5761C66.3738 35.4959 65.3288 36.2427 64.0417 36.2427C62.7545 36.2427 61.7095 35.4959 61.7095 34.5761V19.5397C61.7095 18.6199 62.7545 17.873 64.0417 17.873C65.3288 17.873 66.3738 18.6199 66.3738 19.5397Z" fill="#2277F0"/>
<path d="M66.3738 19.5397V34.5761C66.3738 35.4959 65.3288 36.2427 64.0417 36.2427C62.7545 36.2427 61.7095 35.4959 61.7095 34.5761V19.5397C61.7095 18.6199 62.7545 17.873 64.0417 17.873C65.3288 17.873 66.3738 18.6199 66.3738 19.5397Z" fill="black" fill-opacity="0.2"/>
<path d="M75.1888 15.0475V39.0675C75.1888 39.9874 74.1437 40.7342 72.8566 40.7342C71.5695 40.7342 70.5244 39.9874 70.5244 39.0675V15.0475C70.5244 14.1277 71.5695 13.3809 72.8566 13.3809C74.1437 13.3809 75.1888 14.1277 75.1888 15.0475Z" fill="#2277F0"/>
<path d="M75.1888 15.0475V39.0675C75.1888 39.9874 74.1437 40.7342 72.8566 40.7342C71.5695 40.7342 70.5244 39.9874 70.5244 39.0675V15.0475C70.5244 14.1277 71.5695 13.3809 72.8566 13.3809C74.1437 13.3809 75.1888 14.1277 75.1888 15.0475Z" fill="black" fill-opacity="0.2"/>
<path d="M84.0032 9.60905V44.5067C84.0032 45.4265 82.9582 46.1733 81.6711 46.1733C80.3839 46.1733 79.3389 45.4265 79.3389 44.5067V9.60905C79.3389 8.68922 80.3839 7.94238 81.6711 7.94238C82.9582 7.94238 84.0032 8.68922 84.0032 9.60905Z" fill="#2277F0"/>
<path d="M84.0032 9.60905V44.5067C84.0032 45.4265 82.9582 46.1733 81.6711 46.1733C80.3839 46.1733 79.3389 45.4265 79.3389 44.5067V9.60905C79.3389 8.68922 80.3839 7.94238 81.6711 7.94238C82.9582 7.94238 84.0032 8.68922 84.0032 9.60905Z" fill="black" fill-opacity="0.2"/>
<path d="M92.8206 19.9411V34.1733C92.8206 35.0931 91.7756 35.8399 90.4884 35.8399C89.2013 35.8399 88.1562 35.0931 88.1562 34.1733V19.9411C88.1562 19.0212 89.2013 18.2744 90.4884 18.2744C91.7756 18.2744 92.8206 19.0212 92.8206 19.9411Z" fill="#2277F0"/>
<path d="M92.8206 19.9411V34.1733C92.8206 35.0931 91.7756 35.8399 90.4884 35.8399C89.2013 35.8399 88.1562 35.0931 88.1562 34.1733V19.9411C88.1562 19.0212 89.2013 18.2744 90.4884 18.2744C91.7756 18.2744 92.8206 19.0212 92.8206 19.9411Z" fill="black" fill-opacity="0.2"/>
<path d="M101.637 16.4548V37.6601C101.637 38.5799 100.591 39.3268 99.3044 39.3268C98.0172 39.3268 96.9722 38.5799 96.9722 37.6601V16.4548C96.9722 15.5349 98.0172 14.7881 99.3044 14.7881C100.591 14.7881 101.637 15.5349 101.637 16.4548Z" fill="#2277F0"/>
<path d="M101.637 16.4548V37.6601C101.637 38.5799 100.591 39.3268 99.3044 39.3268C98.0172 39.3268 96.9722 38.5799 96.9722 37.6601V16.4548C96.9722 15.5349 98.0172 14.7881 99.3044 14.7881C100.591 14.7881 101.637 15.5349 101.637 16.4548Z" fill="black" fill-opacity="0.2"/>
<path d="M110.451 22.1442V31.9704C110.451 32.8903 109.406 33.6371 108.119 33.6371C106.832 33.6371 105.787 32.8903 105.787 31.9704V22.1442C105.787 21.2244 106.832 20.4775 108.119 20.4775C109.406 20.4775 110.451 21.2244 110.451 22.1442Z" fill="#2277F0"/>
<path d="M110.451 22.1442V31.9704C110.451 32.8903 109.406 33.6371 108.119 33.6371C106.832 33.6371 105.787 32.8903 105.787 31.9704V22.1442C105.787 21.2244 106.832 20.4775 108.119 20.4775C109.406 20.4775 110.451 21.2244 110.451 22.1442Z" fill="black" fill-opacity="0.2"/>
<path d="M119.269 12.8874V41.227C119.269 42.1468 118.224 42.8937 116.937 42.8937C115.65 42.8937 114.604 42.1468 114.604 41.227V12.8874C114.604 11.9675 115.65 11.2207 116.937 11.2207C118.224 11.2207 119.269 11.9675 119.269 12.8874Z" fill="#2277F0"/>
<path d="M119.269 12.8874V41.227C119.269 42.1468 118.224 42.8937 116.937 42.8937C115.65 42.8937 114.604 42.1468 114.604 41.227V12.8874C114.604 11.9675 115.65 11.2207 116.937 11.2207C118.224 11.2207 119.269 11.9675 119.269 12.8874Z" fill="black" fill-opacity="0.2"/>
<path d="M128.081 1.66667V52.4485C128.081 53.3683 127.036 54.1151 125.749 54.1151C124.462 54.1151 123.417 53.3683 123.417 52.4485V1.66667C123.417 0.746834 124.462 0 125.749 0C127.036 0 128.081 0.746834 128.081 1.66667Z" fill="#2277F0"/>
<path d="M128.081 1.66667V52.4485C128.081 53.3683 127.036 54.1151 125.749 54.1151C124.462 54.1151 123.417 53.3683 123.417 52.4485V1.66667C123.417 0.746834 124.462 0 125.749 0C127.036 0 128.081 0.746834 128.081 1.66667Z" fill="black" fill-opacity="0.2"/>
<path d="M136.899 8.27897V45.8355C136.899 46.7553 135.854 47.5021 134.567 47.5021C133.28 47.5021 132.235 46.7553 132.235 45.8355V8.27897C132.235 7.35914 133.28 6.6123 134.567 6.6123C135.854 6.6123 136.899 7.35914 136.899 8.27897Z" fill="#2277F0"/>
<path d="M136.899 8.27897V45.8355C136.899 46.7553 135.854 47.5021 134.567 47.5021C133.28 47.5021 132.235 46.7553 132.235 45.8355V8.27897C132.235 7.35914 133.28 6.6123 134.567 6.6123C135.854 6.6123 136.899 7.35914 136.899 8.27897Z" fill="black" fill-opacity="0.2"/>
<path d="M145.715 16.6862V37.4292C145.715 38.349 144.67 39.0959 143.382 39.0959C142.095 39.0959 141.05 38.349 141.05 37.4292V16.6862C141.05 15.7664 142.095 15.0195 143.382 15.0195C144.67 15.0195 145.715 15.7664 145.715 16.6862Z" fill="#2277F0"/>
<path d="M145.715 16.6862V37.4292C145.715 38.349 144.67 39.0959 143.382 39.0959C142.095 39.0959 141.05 38.349 141.05 37.4292V16.6862C141.05 15.7664 142.095 15.0195 143.382 15.0195C144.67 15.0195 145.715 15.7664 145.715 16.6862Z" fill="black" fill-opacity="0.2"/>
<path d="M154.529 21.7731V32.3421C154.529 33.2619 153.484 34.0088 152.196 34.0088C150.909 34.0088 149.864 33.2619 149.864 32.3421V21.7731C149.864 20.8533 150.909 20.1064 152.196 20.1064C153.484 20.1064 154.529 20.8533 154.529 21.7731Z" fill="#2277F0"/>
<path d="M154.529 21.7731V32.3421C154.529 33.2619 153.484 34.0088 152.196 34.0088C150.909 34.0088 149.864 33.2619 149.864 32.3421V21.7731C149.864 20.8533 150.909 20.1064 152.196 20.1064C153.484 20.1064 154.529 20.8533 154.529 21.7731Z" fill="black" fill-opacity="0.2"/>
<path d="M163.349 11.6383V42.4761C163.349 43.3959 162.304 44.1428 161.017 44.1428C159.73 44.1428 158.685 43.3959 158.685 42.4761V11.6383C158.685 10.7185 159.73 9.97168 161.017 9.97168C162.304 9.97168 163.349 10.7185 163.349 11.6383Z" fill="#2277F0"/>
<path d="M163.349 11.6383V42.4761C163.349 43.3959 162.304 44.1428 161.017 44.1428C159.73 44.1428 158.685 43.3959 158.685 42.4761V11.6383C158.685 10.7185 159.73 9.97168 161.017 9.97168C162.304 9.97168 163.349 10.7185 163.349 11.6383Z" fill="black" fill-opacity="0.2"/>
<path d="M172.163 18.3239V35.7911C172.163 36.7109 171.118 37.4578 169.831 37.4578C168.544 37.4578 167.499 36.7109 167.499 35.7911V18.3239C167.499 17.4041 168.544 16.6572 169.831 16.6572C171.118 16.6572 172.163 17.4041 172.163 18.3239Z" fill="#2277F0"/>
<path d="M172.163 18.3239V35.7911C172.163 36.7109 171.118 37.4578 169.831 37.4578C168.544 37.4578 167.499 36.7109 167.499 35.7911V18.3239C167.499 17.4041 168.544 16.6572 169.831 16.6572C171.118 16.6572 172.163 17.4041 172.163 18.3239Z" fill="black" fill-opacity="0.2"/>
<path d="M180.977 23.4635V30.651C180.977 31.5708 179.932 32.3177 178.645 32.3177C177.358 32.3177 176.313 31.5708 176.313 30.651V23.4635C176.313 22.5437 177.358 21.7969 178.645 21.7969C179.932 21.7969 180.977 22.5437 180.977 23.4635Z" fill="#2277F0"/>
<path d="M180.977 23.4635V30.651C180.977 31.5708 179.932 32.3177 178.645 32.3177C177.358 32.3177 176.313 31.5708 176.313 30.651V23.4635C176.313 22.5437 177.358 21.7969 178.645 21.7969C179.932 21.7969 180.977 22.5437 180.977 23.4635Z" fill="black" fill-opacity="0.2"/>
<path d="M189.795 12.6471V41.4672C189.795 42.3871 188.75 43.1339 187.463 43.1339C186.175 43.1339 185.13 42.3871 185.13 41.4672V12.6471C185.13 11.7273 186.175 10.9805 187.463 10.9805C188.75 10.9805 189.795 11.7273 189.795 12.6471Z" fill="#2277F0"/>
<path d="M189.795 12.6471V41.4672C189.795 42.3871 188.75 43.1339 187.463 43.1339C186.175 43.1339 185.13 42.3871 185.13 41.4672V12.6471C185.13 11.7273 186.175 10.9805 187.463 10.9805C188.75 10.9805 189.795 11.7273 189.795 12.6471Z" fill="black" fill-opacity="0.2"/>
<path d="M198.608 17.5143V36.6004C198.608 37.5203 197.563 38.2671 196.276 38.2671C194.988 38.2671 193.943 37.5203 193.943 36.6004V17.5143C193.943 16.5945 194.988 15.8477 196.276 15.8477C197.563 15.8477 198.608 16.5945 198.608 17.5143Z" fill="#2277F0"/>
<path d="M198.608 17.5143V36.6004C198.608 37.5203 197.563 38.2671 196.276 38.2671C194.988 38.2671 193.943 37.5203 193.943 36.6004V17.5143C193.943 16.5945 194.988 15.8477 196.276 15.8477C197.563 15.8477 198.608 16.5945 198.608 17.5143Z" fill="black" fill-opacity="0.2"/>
<path d="M207.425 6.91569V47.1992C207.425 48.119 206.38 48.8658 205.092 48.8658C203.805 48.8658 202.76 48.119 202.76 47.1992V6.91569C202.76 5.99586 203.805 5.24902 205.092 5.24902C206.38 5.24902 207.425 5.99586 207.425 6.91569Z" fill="#2277F0"/>
<path d="M207.425 6.91569V47.1992C207.425 48.119 206.38 48.8658 205.092 48.8658C203.805 48.8658 202.76 48.119 202.76 47.1992V6.91569C202.76 5.99586 203.805 5.24902 205.092 5.24902C206.38 5.24902 207.425 5.99586 207.425 6.91569Z" fill="black" fill-opacity="0.2"/>
<path d="M216.239 21.7907V32.3247C216.239 33.2445 215.194 33.9913 213.907 33.9913C212.62 33.9913 211.575 33.2445 211.575 32.3247V21.7907C211.575 20.8709 212.62 20.124 213.907 20.124C215.194 20.124 216.239 20.8709 216.239 21.7907Z" fill="#2277F0"/>
<path d="M216.239 21.7907V32.3247C216.239 33.2445 215.194 33.9913 213.907 33.9913C212.62 33.9913 211.575 33.2445 211.575 32.3247V21.7907C211.575 20.8709 212.62 20.124 213.907 20.124C215.194 20.124 216.239 20.8709 216.239 21.7907Z" fill="black" fill-opacity="0.2"/>
<path d="M225.057 15.4899V38.6249C225.057 39.5447 224.012 40.2915 222.725 40.2915C221.438 40.2915 220.393 39.5447 220.393 38.6249V15.4899C220.393 14.5701 221.438 13.8232 222.725 13.8232C224.012 13.8232 225.057 14.5701 225.057 15.4899Z" fill="#2277F0"/>
<path d="M225.057 15.4899V38.6249C225.057 39.5447 224.012 40.2915 222.725 40.2915C221.438 40.2915 220.393 39.5447 220.393 38.6249V15.4899C220.393 14.5701 221.438 13.8232 222.725 13.8232C224.012 13.8232 225.057 14.5701 225.057 15.4899Z" fill="black" fill-opacity="0.2"/>
<path d="M233.873 18.57V35.5453C233.873 36.4651 232.828 37.2119 231.541 37.2119C230.254 37.2119 229.209 36.4651 229.209 35.5453V18.57C229.209 17.6502 230.254 16.9033 231.541 16.9033C232.828 16.9033 233.873 17.6502 233.873 18.57Z" fill="#2277F0"/>
<path d="M233.873 18.57V35.5453C233.873 36.4651 232.828 37.2119 231.541 37.2119C230.254 37.2119 229.209 36.4651 229.209 35.5453V18.57C229.209 17.6502 230.254 16.9033 231.541 16.9033C232.828 16.9033 233.873 17.6502 233.873 18.57Z" fill="black" fill-opacity="0.2"/>
<path d="M242.686 9.94596V44.1691C242.686 45.089 241.641 45.8358 240.354 45.8358C239.067 45.8358 238.022 45.089 238.022 44.1691V9.94596C238.022 9.02613 239.067 8.2793 240.354 8.2793C241.641 8.2793 242.686 9.02613 242.686 9.94596Z" fill="#2277F0"/>
<path d="M242.686 9.94596V44.1691C242.686 45.089 241.641 45.8358 240.354 45.8358C239.067 45.8358 238.022 45.089 238.022 44.1691V9.94596C238.022 9.02613 239.067 8.2793 240.354 8.2793C241.641 8.2793 242.686 9.02613 242.686 9.94596Z" fill="black" fill-opacity="0.2"/>
<path d="M251.504 23.363V30.7516C251.504 31.6715 250.459 32.4183 249.172 32.4183C247.884 32.4183 246.839 31.6715 246.839 30.7516V23.363C246.839 22.4431 247.884 21.6963 249.172 21.6963C250.459 21.6963 251.504 22.4431 251.504 23.363Z" fill="#2277F0"/>
<path d="M251.504 23.363V30.7516C251.504 31.6715 250.459 32.4183 249.172 32.4183C247.884 32.4183 246.839 31.6715 246.839 30.7516V23.363C246.839 22.4431 247.884 21.6963 249.172 21.6963C250.459 21.6963 251.504 22.4431 251.504 23.363Z" fill="black" fill-opacity="0.2"/>
<path d="M260.319 16.859V37.2573C260.319 38.1771 259.274 38.924 257.986 38.924C256.699 38.924 255.654 38.1771 255.654 37.2573V16.859C255.654 15.9392 256.699 15.1924 257.986 15.1924C259.274 15.1924 260.319 15.9392 260.319 16.859Z" fill="#2277F0"/>
<path d="M260.319 16.859V37.2573C260.319 38.1771 259.274 38.924 257.986 38.924C256.699 38.924 255.654 38.1771 255.654 37.2573V16.859C255.654 15.9392 256.699 15.1924 257.986 15.1924C259.274 15.1924 260.319 15.9392 260.319 16.859Z" fill="black" fill-opacity="0.2"/>
<path d="M269.136 9.72624V44.3887C269.136 45.3086 268.091 46.0554 266.804 46.0554C265.517 46.0554 264.472 45.3086 264.472 44.3887V9.72624C264.472 8.8064 265.517 8.05957 266.804 8.05957C268.091 8.05957 269.136 8.8064 269.136 9.72624Z" fill="#2277F0"/>
<path d="M269.136 9.72624V44.3887C269.136 45.3086 268.091 46.0554 266.804 46.0554C265.517 46.0554 264.472 45.3086 264.472 44.3887V9.72624C264.472 8.8064 265.517 8.05957 266.804 8.05957C268.091 8.05957 269.136 8.8064 269.136 9.72624Z" fill="black" fill-opacity="0.2"/>
<path d="M277.95 4.55143V49.5628C277.95 50.4827 276.904 51.2295 275.617 51.2295C274.33 51.2295 273.285 50.4827 273.285 49.5628V4.55143C273.285 3.6316 274.33 2.88477 275.617 2.88477C276.904 2.88477 277.95 3.6316 277.95 4.55143Z" fill="#2277F0"/>
<path d="M277.95 4.55143V49.5628C277.95 50.4827 276.904 51.2295 275.617 51.2295C274.33 51.2295 273.285 50.4827 273.285 49.5628V4.55143C273.285 3.6316 274.33 2.88477 275.617 2.88477C276.904 2.88477 277.95 3.6316 277.95 4.55143Z" fill="black" fill-opacity="0.2"/>
<path d="M286.764 14.8727V39.242C286.764 40.1618 285.719 40.9087 284.432 40.9087C283.145 40.9087 282.1 40.1618 282.1 39.242V14.8727C282.1 13.9529 283.145 13.2061 284.432 13.2061C285.719 13.2061 286.764 13.9529 286.764 14.8727Z" fill="#2277F0"/>
<path d="M286.764 14.8727V39.242C286.764 40.1618 285.719 40.9087 284.432 40.9087C283.145 40.9087 282.1 40.1618 282.1 39.242V14.8727C282.1 13.9529 283.145 13.2061 284.432 13.2061C285.719 13.2061 286.764 13.9529 286.764 14.8727Z" fill="black" fill-opacity="0.2"/>
<path d="M295.582 19.7692V34.3449C295.582 35.2647 294.537 36.0116 293.25 36.0116C291.963 36.0116 290.917 35.2647 290.917 34.3449V19.7692C290.917 18.8494 291.963 18.1025 293.25 18.1025C294.537 18.1025 295.582 18.8494 295.582 19.7692Z" fill="#2277F0"/>
<path d="M295.582 19.7692V34.3449C295.582 35.2647 294.537 36.0116 293.25 36.0116C291.963 36.0116 290.917 35.2647 290.917 34.3449V19.7692C290.917 18.8494 291.963 18.1025 293.25 18.1025C294.537 18.1025 295.582 18.8494 295.582 19.7692Z" fill="black" fill-opacity="0.2"/>
<path d="M304.398 23.1022V31.0128C304.398 31.9326 303.353 32.6795 302.066 32.6795C300.778 32.6795 299.733 31.9326 299.733 31.0128V23.1022C299.733 22.1824 300.778 21.4355 302.066 21.4355C303.353 21.4355 304.398 22.1824 304.398 23.1022Z" fill="#2277F0"/>
<path d="M304.398 23.1022V31.0128C304.398 31.9326 303.353 32.6795 302.066 32.6795C300.778 32.6795 299.733 31.9326 299.733 31.0128V23.1022C299.733 22.1824 300.778 21.4355 302.066 21.4355C303.353 21.4355 304.398 22.1824 304.398 23.1022Z" fill="black" fill-opacity="0.2"/>
<path d="M313.21 26.0339V28.0812C313.21 29.001 312.165 29.7478 310.878 29.7478C309.591 29.7478 308.546 29.001 308.546 28.0812V26.0339C308.546 25.114 309.591 24.3672 310.878 24.3672C312.165 24.3672 313.21 25.114 313.21 26.0339Z" fill="#2277F0"/>
<path d="M313.21 26.0339V28.0812C313.21 29.001 312.165 29.7478 310.878 29.7478C309.591 29.7478 308.546 29.001 308.546 28.0812V26.0339C308.546 25.114 309.591 24.3672 310.878 24.3672C312.165 24.3672 313.21 25.114 313.21 26.0339Z" fill="black" fill-opacity="0.2"/>
</svg>
