<svg width="26" height="24" viewBox="0 0 26 24" fill="none" xmlns="http://www.w3.org/2000/svg">
<path d="M13.0011 6.46259C11.8993 6.46259 10.8222 6.78734 9.906 7.39579C8.98985 8.00424 8.2758 8.86905 7.85414 9.88086C7.43248 10.8927 7.32216 12.006 7.53712 13.0802C7.75208 14.1543 8.28267 15.141 9.06179 15.9154C9.84091 16.6898 10.8336 17.2172 11.9142 17.4308C12.9949 17.6445 14.1151 17.5348 15.133 17.1157C16.151 16.6966 17.0211 15.9869 17.6332 15.0763C18.2454 14.1657 18.5721 13.0951 18.5721 11.9999C18.5706 10.5318 17.9832 9.12423 16.9387 8.08611C15.8943 7.048 14.4782 6.46411 13.0011 6.46259ZM13.0011 15.6914C12.2665 15.6914 11.5485 15.4749 10.9377 15.0693C10.3269 14.6637 9.8509 14.0871 9.56979 13.4126C9.28869 12.7381 9.21514 11.9958 9.35844 11.2797C9.50175 10.5636 9.85548 9.90586 10.3749 9.38959C10.8943 8.87331 11.5561 8.52173 12.2765 8.37929C12.997 8.23685 13.7437 8.30996 14.4224 8.58936C15.101 8.86876 15.6811 9.34192 16.0892 9.94899C16.4973 10.5561 16.7151 11.2698 16.7151 11.9999C16.7151 12.979 16.3238 13.9179 15.6273 14.6102C14.9308 15.3025 13.9861 15.6914 13.0011 15.6914ZM25.7611 9.60155C25.7352 9.47159 25.6815 9.34869 25.6036 9.2412C25.5257 9.13371 25.4254 9.04415 25.3096 8.9786L21.8474 7.01747L21.8335 3.13904C21.8331 3.00547 21.8035 2.87358 21.7468 2.75248C21.6901 2.63139 21.6076 2.52397 21.505 2.43765C20.2492 1.38175 18.8029 0.572571 17.2432 0.0531401C17.1204 0.0118176 16.9902 -0.0034747 16.8611 0.00824799C16.7319 0.0199707 16.6067 0.0584485 16.4934 0.121203L13.0011 2.06157L9.50528 0.117742C9.39195 0.0546342 9.26655 0.0158658 9.1372 0.00394304C9.00785 -0.00797974 8.87743 0.00720833 8.75435 0.0485255C7.1958 0.571753 5.75121 1.38402 4.49716 2.44226C4.39475 2.52846 4.31236 2.63569 4.25566 2.75657C4.19895 2.87746 4.16929 3.00913 4.1687 3.1425L4.15129 7.02439L0.689128 8.98553C0.573299 9.05107 0.473024 9.14063 0.395119 9.24812C0.317214 9.35561 0.263505 9.47851 0.237642 9.60847C-0.0792142 11.1911 -0.0792142 12.8203 0.237642 14.4029C0.263505 14.5328 0.317214 14.6557 0.395119 14.7632C0.473024 14.8707 0.573299 14.9603 0.689128 15.0258L4.15129 16.9869L4.16522 20.8654C4.16564 20.999 4.19522 21.1308 4.25193 21.2519C4.30864 21.373 4.39112 21.4805 4.49368 21.5668C5.74956 22.6227 7.19581 23.4319 8.75551 23.9513C8.87834 23.9926 9.00851 24.0079 9.13765 23.9962C9.26678 23.9845 9.39201 23.946 9.50528 23.8832L13.0011 21.9382L16.4969 23.8821C16.6353 23.9587 16.7912 23.9984 16.9496 23.9974C17.051 23.9974 17.1517 23.981 17.2478 23.949C18.8062 23.4264 20.2508 22.615 21.505 21.5575C21.6074 21.4714 21.6898 21.3641 21.7465 21.2432C21.8032 21.1223 21.8329 20.9907 21.8335 20.8573L21.8509 16.9754L25.3131 15.0143C25.4289 14.9487 25.5292 14.8592 25.6071 14.7517C25.685 14.6442 25.7387 14.5213 25.7646 14.3913C26.0796 12.81 26.0785 11.1824 25.7611 9.60155ZM24.0201 13.6288L20.7042 15.5034C20.5589 15.5855 20.4386 15.7051 20.356 15.8495C20.2887 15.9649 20.2179 16.0871 20.1459 16.2025C20.0538 16.348 20.0048 16.5163 20.0043 16.6882L19.9869 20.4086C19.0957 21.1042 18.1027 21.6605 17.0424 22.0582L13.6975 20.2055C13.5586 20.1291 13.4024 20.0894 13.2437 20.0902H13.2216C13.0812 20.0902 12.9396 20.0902 12.7991 20.0902C12.633 20.086 12.4688 20.1258 12.3233 20.2055L8.97603 22.0628C7.91349 21.6682 6.9178 21.1146 6.02339 20.4212L6.01062 16.7066C6.01005 16.5344 5.961 16.3658 5.86902 16.2198C5.79706 16.1044 5.72627 15.9891 5.66011 15.8668C5.57808 15.7202 5.4578 15.5982 5.31192 15.5138L1.99252 13.6346C1.82074 12.5546 1.82074 11.4545 1.99252 10.3745L5.30264 8.4964C5.44792 8.41428 5.56821 8.29472 5.65082 8.15031C5.71814 8.03495 5.78894 7.91267 5.8609 7.79731C5.95301 7.65183 6.00208 7.48353 6.0025 7.31164L6.01991 3.59126C6.91119 2.89557 7.90414 2.33927 8.96443 1.9416L12.3047 3.79429C12.4501 3.87438 12.6144 3.91422 12.7806 3.90965C12.921 3.90965 13.0626 3.90965 13.203 3.90965C13.3692 3.91378 13.5334 3.87396 13.6789 3.79429L17.0262 1.93698C18.0887 2.3316 19.0844 2.88518 19.9788 3.57857L19.9916 7.29318C19.9922 7.46541 20.0412 7.63404 20.1332 7.78001C20.2051 7.89537 20.2759 8.01073 20.3421 8.13301C20.4241 8.27965 20.5444 8.40159 20.6903 8.48601L24.0097 10.3652C24.1837 11.4461 24.1857 12.5474 24.0155 13.6288H24.0201Z" fill="white"/>
</svg>
