<svg width="24" height="24" viewBox="0 0 24 24" fill="none" xmlns="http://www.w3.org/2000/svg">
<path d="M19 2.18083H12.472C12.318 2.18083 12.162 2.14155 12.025 2.06628L8.872 0.346925C8.457 0.120006 7.993 3.64646e-07 7.528 3.64646e-07H5C2.243 -0.00109059 0 2.44593 0 5.4537V18.5452C0 21.553 2.243 24 5 24H8C8.552 24 9 23.5123 9 22.909C9 22.3057 8.552 21.8181 8 21.8181H5C3.346 21.8181 2 20.3497 2 18.5452V8.72658H22V18.5452C22 20.3497 20.654 21.8181 19 21.8181H16C15.448 21.8181 15 22.3057 15 22.909C15 23.5123 15.448 24 16 24H19C21.757 24 24 21.553 24 18.5452V7.63562C24 4.62785 21.757 2.18083 19 2.18083ZM2 5.4537C2 3.64926 3.346 2.18083 5 2.18083H7.528C7.682 2.18083 7.836 2.2201 7.975 2.29647L11.131 4.01691C11.546 4.24274 12.009 4.36165 12.472 4.36165H19C20.302 4.36165 21.402 5.27697 21.816 6.54357H2V5.4537ZM14.293 16.2498L13 14.8392V22.909C13 23.5123 12.552 24 12 24C11.448 24 11 23.5123 11 22.909V14.8392L9.707 16.2498C9.512 16.4626 9.256 16.5695 9 16.5695C8.744 16.5695 8.488 16.4626 8.293 16.2498C7.902 15.8233 7.902 15.1338 8.293 14.7072L9.906 12.9475C11.024 11.7267 12.975 11.7267 14.094 12.9475L15.707 14.7072C16.098 15.1338 16.098 15.8233 15.707 16.2498C15.316 16.6764 14.684 16.6764 14.293 16.2498Z" fill="white"/>
</svg>
