<svg width="24" height="24" viewBox="0 0 24 24" fill="none" xmlns="http://www.w3.org/2000/svg">
<path d="M23.899 6.54545H0V5.45455C0 2.44691 2.243 0 5 0H7.528C7.991 0 8.455 0.118909 8.869 0.344727L12.025 2.06618C12.163 2.14145 12.318 2.18073 12.472 2.18073H19C21.414 2.18073 23.434 4.05927 23.899 6.54545ZM24 8.72727V18.5455C24 21.5531 21.757 24 19 24H5C2.243 24 0 21.5531 0 18.5455V8.72727H24ZM15.707 13.6145L14.094 11.8549C12.94 10.596 11.061 10.596 9.907 11.8549L8.293 13.6145C7.372 14.628 8.779 16.1618 9.707 15.1571L11 13.7465V20.7262C11.006 22.1531 12.995 22.152 13 20.7262V13.7465L14.293 15.1571C15.222 16.1618 16.628 14.6269 15.707 13.6145Z" fill="#2277F0"/>
<path d="M23.899 6.54545H0V5.45455C0 2.44691 2.243 0 5 0H7.528C7.991 0 8.455 0.118909 8.869 0.344727L12.025 2.06618C12.163 2.14145 12.318 2.18073 12.472 2.18073H19C21.414 2.18073 23.434 4.05927 23.899 6.54545ZM24 8.72727V18.5455C24 21.5531 21.757 24 19 24H5C2.243 24 0 21.5531 0 18.5455V8.72727H24ZM15.707 13.6145L14.094 11.8549C12.94 10.596 11.061 10.596 9.907 11.8549L8.293 13.6145C7.372 14.628 8.779 16.1618 9.707 15.1571L11 13.7465V20.7262C11.006 22.1531 12.995 22.152 13 20.7262V13.7465L14.293 15.1571C15.222 16.1618 16.628 14.6269 15.707 13.6145Z" fill="black" fill-opacity="0.2"/>
</svg>
