<svg width="327" height="100" viewBox="0 0 327 100" fill="none" xmlns="http://www.w3.org/2000/svg">
<mask id="mask0_568_1570" style="mask-type:luminance" maskUnits="userSpaceOnUse" x="0" y="0" width="327" height="100">
<path d="M327 0H0V100H327V0Z" fill="white"/>
</mask>
<g mask="url(#mask0_568_1570)">
<path d="M10.7532 43.3385V51.6618C10.7532 52.5817 9.70819 53.3285 8.42105 53.3285C7.13392 53.3285 6.08887 52.5817 6.08887 51.6618V43.3385C6.08887 42.4187 7.13392 41.6719 8.42105 41.6719C9.70819 41.6719 10.7532 42.4187 10.7532 43.3385Z" fill="#2277F0"/>
<path d="M10.7532 43.3385V51.6618C10.7532 52.5817 9.70819 53.3285 8.42105 53.3285C7.13392 53.3285 6.08887 52.5817 6.08887 51.6618V43.3385C6.08887 42.4187 7.13392 41.6719 8.42105 41.6719C9.70819 41.6719 10.7532 42.4187 10.7532 43.3385Z" fill="black" fill-opacity="0.2"/>
<path d="M19.5677 44.9137V50.0866C19.5677 51.0064 18.5226 51.7533 17.2355 51.7533C15.9484 51.7533 14.9033 51.0064 14.9033 50.0866V44.9137C14.9033 43.9939 15.9484 43.2471 17.2355 43.2471C18.5226 43.2471 19.5677 43.9939 19.5677 44.9137Z" fill="#2277F0"/>
<path d="M19.5677 44.9137V50.0866C19.5677 51.0064 18.5226 51.7533 17.2355 51.7533C15.9484 51.7533 14.9033 51.0064 14.9033 50.0866V44.9137C14.9033 43.9939 15.9484 43.2471 17.2355 43.2471C18.5226 43.2471 19.5677 43.9939 19.5677 44.9137Z" fill="black" fill-opacity="0.2"/>
<path d="M28.3836 35.5339V59.4655C28.3836 60.3853 27.3386 61.1321 26.0514 61.1321C24.7643 61.1321 23.7192 60.3853 23.7192 59.4655V35.5339C23.7192 34.614 24.7643 33.8672 26.0514 33.8672C27.3386 33.8672 28.3836 34.614 28.3836 35.5339Z" fill="#2277F0"/>
<path d="M28.3836 35.5339V59.4655C28.3836 60.3853 27.3386 61.1321 26.0514 61.1321C24.7643 61.1321 23.7192 60.3853 23.7192 59.4655V35.5339C23.7192 34.614 24.7643 33.8672 26.0514 33.8672C27.3386 33.8672 28.3836 34.614 28.3836 35.5339Z" fill="black" fill-opacity="0.2"/>
<path d="M37.199 41.2077V53.7917C37.199 54.7115 36.154 55.4584 34.8669 55.4584C33.5797 55.4584 32.5347 54.7115 32.5347 53.7917V41.2077C32.5347 40.2878 33.5797 39.541 34.8669 39.541C36.154 39.541 37.199 40.2878 37.199 41.2077Z" fill="#2277F0"/>
<path d="M37.199 41.2077V53.7917C37.199 54.7115 36.154 55.4584 34.8669 55.4584C33.5797 55.4584 32.5347 54.7115 32.5347 53.7917V41.2077C32.5347 40.2878 33.5797 39.541 34.8669 39.541C36.154 39.541 37.199 40.2878 37.199 41.2077Z" fill="black" fill-opacity="0.2"/>
<path d="M46.0164 31.7712V63.2281C46.0164 64.148 44.9714 64.8948 43.6842 64.8948C42.3971 64.8948 41.3521 64.148 41.3521 63.2281V31.7712C41.3521 30.8513 42.3971 30.1045 43.6842 30.1045C44.9714 30.1045 46.0164 30.8513 46.0164 31.7712Z" fill="#2277F0"/>
<path d="M46.0164 31.7712V63.2281C46.0164 64.148 44.9714 64.8948 43.6842 64.8948C42.3971 64.8948 41.3521 64.148 41.3521 63.2281V31.7712C41.3521 30.8513 42.3971 30.1045 43.6842 30.1045C44.9714 30.1045 46.0164 30.8513 46.0164 31.7712Z" fill="black" fill-opacity="0.2"/>
<path d="M54.8304 36.3786V58.6207C54.8304 59.5406 53.7853 60.2874 52.4982 60.2874C51.2111 60.2874 50.166 59.5406 50.166 58.6207V36.3786C50.166 35.4587 51.2111 34.7119 52.4982 34.7119C53.7853 34.7119 54.8304 35.4587 54.8304 36.3786Z" fill="#2277F0"/>
<path d="M54.8304 36.3786V58.6207C54.8304 59.5406 53.7853 60.2874 52.4982 60.2874C51.2111 60.2874 50.166 59.5406 50.166 58.6207V36.3786C50.166 35.4587 51.2111 34.7119 52.4982 34.7119C53.7853 34.7119 54.8304 35.4587 54.8304 36.3786Z" fill="black" fill-opacity="0.2"/>
<path d="M63.6458 27.6647V67.3343C63.6458 68.2541 62.6008 69.0009 61.3136 69.0009C60.0265 69.0009 58.9814 68.2541 58.9814 67.3343V27.6647C58.9814 26.7449 60.0265 25.998 61.3136 25.998C62.6008 25.998 63.6458 26.7449 63.6458 27.6647Z" fill="#2277F0"/>
<path d="M63.6458 27.6647V67.3343C63.6458 68.2541 62.6008 69.0009 61.3136 69.0009C60.0265 69.0009 58.9814 68.2541 58.9814 67.3343V27.6647C58.9814 26.7449 60.0265 25.998 61.3136 25.998C62.6008 25.998 63.6458 26.7449 63.6458 27.6647Z" fill="black" fill-opacity="0.2"/>
<path d="M72.4627 39.9821V55.0184C72.4627 55.9383 71.4177 56.6851 70.1305 56.6851C68.8434 56.6851 67.7983 55.9383 67.7983 55.0184V39.9821C67.7983 39.0623 68.8434 38.3154 70.1305 38.3154C71.4177 38.3154 72.4627 39.0623 72.4627 39.9821Z" fill="#2277F0"/>
<path d="M72.4627 39.9821V55.0184C72.4627 55.9383 71.4177 56.6851 70.1305 56.6851C68.8434 56.6851 67.7983 55.9383 67.7983 55.0184V39.9821C67.7983 39.0623 68.8434 38.3154 70.1305 38.3154C71.4177 38.3154 72.4627 39.0623 72.4627 39.9821Z" fill="black" fill-opacity="0.2"/>
<path d="M81.2777 35.4899V59.5099C81.2777 60.4297 80.2326 61.1766 78.9455 61.1766C77.6583 61.1766 76.6133 60.4297 76.6133 59.5099V35.4899C76.6133 34.5701 77.6583 33.8232 78.9455 33.8232C80.2326 33.8232 81.2777 34.5701 81.2777 35.4899Z" fill="#2277F0"/>
<path d="M81.2777 35.4899V59.5099C81.2777 60.4297 80.2326 61.1766 78.9455 61.1766C77.6583 61.1766 76.6133 60.4297 76.6133 59.5099V35.4899C76.6133 34.5701 77.6583 33.8232 78.9455 33.8232C80.2326 33.8232 81.2777 34.5701 81.2777 35.4899Z" fill="black" fill-opacity="0.2"/>
<path d="M90.0921 30.0509V64.9486C90.0921 65.8684 89.0471 66.6152 87.7599 66.6152C86.4728 66.6152 85.4277 65.8684 85.4277 64.9486V30.0509C85.4277 29.1311 86.4728 28.3843 87.7599 28.3843C89.0471 28.3843 90.0921 29.1311 90.0921 30.0509Z" fill="#2277F0"/>
<path d="M90.0921 30.0509V64.9486C90.0921 65.8684 89.0471 66.6152 87.7599 66.6152C86.4728 66.6152 85.4277 65.8684 85.4277 64.9486V30.0509C85.4277 29.1311 86.4728 28.3843 87.7599 28.3843C89.0471 28.3843 90.0921 29.1311 90.0921 30.0509Z" fill="black" fill-opacity="0.2"/>
<path d="M98.9095 40.384V54.6161C98.9095 55.536 97.8644 56.2828 96.5773 56.2828C95.2902 56.2828 94.2451 55.536 94.2451 54.6161V40.384C94.2451 39.4641 95.2902 38.7173 96.5773 38.7173C97.8644 38.7173 98.9095 39.4641 98.9095 40.384Z" fill="#2277F0"/>
<path d="M98.9095 40.384V54.6161C98.9095 55.536 97.8644 56.2828 96.5773 56.2828C95.2902 56.2828 94.2451 55.536 94.2451 54.6161V40.384C94.2451 39.4641 95.2902 38.7173 96.5773 38.7173C97.8644 38.7173 98.9095 39.4641 98.9095 40.384Z" fill="black" fill-opacity="0.2"/>
<path d="M107.725 36.8971V58.1025C107.725 59.0223 106.68 59.7692 105.393 59.7692C104.106 59.7692 103.061 59.0223 103.061 58.1025V36.8971C103.061 35.9773 104.106 35.2305 105.393 35.2305C106.68 35.2305 107.725 35.9773 107.725 36.8971Z" fill="#2277F0"/>
<path d="M107.725 36.8971V58.1025C107.725 59.0223 106.68 59.7692 105.393 59.7692C104.106 59.7692 103.061 59.0223 103.061 58.1025V36.8971C103.061 35.9773 104.106 35.2305 105.393 35.2305C106.68 35.2305 107.725 35.9773 107.725 36.8971Z" fill="black" fill-opacity="0.2"/>
<path d="M116.54 42.5866V52.4128C116.54 53.3327 115.495 54.0795 114.208 54.0795C112.921 54.0795 111.875 53.3327 111.875 52.4128V42.5866C111.875 41.6668 112.921 40.9199 114.208 40.9199C115.495 40.9199 116.54 41.6668 116.54 42.5866Z" fill="#2277F0"/>
<path d="M116.54 42.5866V52.4128C116.54 53.3327 115.495 54.0795 114.208 54.0795C112.921 54.0795 111.875 53.3327 111.875 52.4128V42.5866C111.875 41.6668 112.921 40.9199 114.208 40.9199C115.495 40.9199 116.54 41.6668 116.54 42.5866Z" fill="black" fill-opacity="0.2"/>
<path d="M125.358 33.3298V61.6694C125.358 62.5892 124.313 63.336 123.026 63.336C121.738 63.336 120.693 62.5892 120.693 61.6694V33.3298C120.693 32.4099 121.738 31.6631 123.026 31.6631C124.313 31.6631 125.358 32.4099 125.358 33.3298Z" fill="#2277F0"/>
<path d="M125.358 33.3298V61.6694C125.358 62.5892 124.313 63.336 123.026 63.336C121.738 63.336 120.693 62.5892 120.693 61.6694V33.3298C120.693 32.4099 121.738 31.6631 123.026 31.6631C124.313 31.6631 125.358 32.4099 125.358 33.3298Z" fill="black" fill-opacity="0.2"/>
<path d="M134.17 22.109V72.8909C134.17 73.8107 133.125 74.5575 131.838 74.5575C130.551 74.5575 129.506 73.8107 129.506 72.8909V22.109C129.506 21.1892 130.551 20.4424 131.838 20.4424C133.125 20.4424 134.17 21.1892 134.17 22.109Z" fill="#2277F0"/>
<path d="M134.17 22.109V72.8909C134.17 73.8107 133.125 74.5575 131.838 74.5575C130.551 74.5575 129.506 73.8107 129.506 72.8909V22.109C129.506 21.1892 130.551 20.4424 131.838 20.4424C133.125 20.4424 134.17 21.1892 134.17 22.109Z" fill="black" fill-opacity="0.2"/>
<path d="M142.988 28.7218V66.2783C142.988 67.1982 141.943 67.945 140.656 67.945C139.369 67.945 138.324 67.1982 138.324 66.2783V28.7218C138.324 27.802 139.369 27.0552 140.656 27.0552C141.943 27.0552 142.988 27.802 142.988 28.7218Z" fill="#2277F0"/>
<path d="M142.988 28.7218V66.2783C142.988 67.1982 141.943 67.945 140.656 67.945C139.369 67.945 138.324 67.1982 138.324 66.2783V28.7218C138.324 27.802 139.369 27.0552 140.656 27.0552C141.943 27.0552 142.988 27.802 142.988 28.7218Z" fill="black" fill-opacity="0.2"/>
<path d="M151.804 37.1286V57.8716C151.804 58.7914 150.758 59.5382 149.471 59.5382C148.184 59.5382 147.139 58.7914 147.139 57.8716V37.1286C147.139 36.2087 148.184 35.4619 149.471 35.4619C150.758 35.4619 151.804 36.2087 151.804 37.1286Z" fill="#2277F0"/>
<path d="M151.804 37.1286V57.8716C151.804 58.7914 150.758 59.5382 149.471 59.5382C148.184 59.5382 147.139 58.7914 147.139 57.8716V37.1286C147.139 36.2087 148.184 35.4619 149.471 35.4619C150.758 35.4619 151.804 36.2087 151.804 37.1286Z" fill="black" fill-opacity="0.2"/>
<path d="M160.617 42.2155V52.7845C160.617 53.7043 159.572 54.4512 158.285 54.4512C156.998 54.4512 155.953 53.7043 155.953 52.7845V42.2155C155.953 41.2957 156.998 40.5488 158.285 40.5488C159.572 40.5488 160.617 41.2957 160.617 42.2155Z" fill="#2277F0"/>
<path d="M160.617 42.2155V52.7845C160.617 53.7043 159.572 54.4512 158.285 54.4512C156.998 54.4512 155.953 53.7043 155.953 52.7845V42.2155C155.953 41.2957 156.998 40.5488 158.285 40.5488C159.572 40.5488 160.617 41.2957 160.617 42.2155Z" fill="black" fill-opacity="0.2"/>
<path d="M169.438 32.0812V62.919C169.438 63.8388 168.393 64.5856 167.106 64.5856C165.818 64.5856 164.773 63.8388 164.773 62.919V32.0812C164.773 31.1614 165.818 30.4146 167.106 30.4146C168.393 30.4146 169.438 31.1614 169.438 32.0812Z" fill="#2277F0"/>
<path d="M169.438 32.0812V62.919C169.438 63.8388 168.393 64.5856 167.106 64.5856C165.818 64.5856 164.773 63.8388 164.773 62.919V32.0812C164.773 31.1614 165.818 30.4146 167.106 30.4146C168.393 30.4146 169.438 31.1614 169.438 32.0812Z" fill="black" fill-opacity="0.2"/>
<path d="M178.252 38.7663V56.2335C178.252 57.1533 177.207 57.9002 175.92 57.9002C174.633 57.9002 173.588 57.1533 173.588 56.2335V38.7663C173.588 37.8464 174.633 37.0996 175.92 37.0996C177.207 37.0996 178.252 37.8464 178.252 38.7663Z" fill="#2277F0"/>
<path d="M178.252 38.7663V56.2335C178.252 57.1533 177.207 57.9002 175.92 57.9002C174.633 57.9002 173.588 57.1533 173.588 56.2335V38.7663C173.588 37.8464 174.633 37.0996 175.92 37.0996C177.207 37.0996 178.252 37.8464 178.252 38.7663Z" fill="black" fill-opacity="0.2"/>
<path d="M187.066 43.9059V51.0934C187.066 52.0132 186.021 52.7601 184.734 52.7601C183.447 52.7601 182.402 52.0132 182.402 51.0934V43.9059C182.402 42.9861 183.447 42.2393 184.734 42.2393C186.021 42.2393 187.066 42.9861 187.066 43.9059Z" fill="#2277F0"/>
<path d="M187.066 43.9059V51.0934C187.066 52.0132 186.021 52.7601 184.734 52.7601C183.447 52.7601 182.402 52.0132 182.402 51.0934V43.9059C182.402 42.9861 183.447 42.2393 184.734 42.2393C186.021 42.2393 187.066 42.9861 187.066 43.9059Z" fill="black" fill-opacity="0.2"/>
<path d="M195.884 33.0895V61.9096C195.884 62.8294 194.839 63.5763 193.551 63.5763C192.264 63.5763 191.219 62.8294 191.219 61.9096V33.0895C191.219 32.1697 192.264 31.4229 193.551 31.4229C194.839 31.4229 195.884 32.1697 195.884 33.0895Z" fill="#2277F0"/>
<path d="M195.884 33.0895V61.9096C195.884 62.8294 194.839 63.5763 193.551 63.5763C192.264 63.5763 191.219 62.8294 191.219 61.9096V33.0895C191.219 32.1697 192.264 31.4229 193.551 31.4229C194.839 31.4229 195.884 32.1697 195.884 33.0895Z" fill="black" fill-opacity="0.2"/>
<path d="M204.697 37.9567V57.0428C204.697 57.9627 203.652 58.7095 202.364 58.7095C201.077 58.7095 200.032 57.9627 200.032 57.0428V37.9567C200.032 37.0369 201.077 36.29 202.364 36.29C203.652 36.29 204.697 37.0369 204.697 37.9567Z" fill="#2277F0"/>
<path d="M204.697 37.9567V57.0428C204.697 57.9627 203.652 58.7095 202.364 58.7095C201.077 58.7095 200.032 57.9627 200.032 57.0428V37.9567C200.032 37.0369 201.077 36.29 202.364 36.29C203.652 36.29 204.697 37.0369 204.697 37.9567Z" fill="black" fill-opacity="0.2"/>
<path d="M213.513 27.3581V67.6416C213.513 68.5614 212.468 69.3082 211.181 69.3082C209.894 69.3082 208.849 68.5614 208.849 67.6416V27.3581C208.849 26.4382 209.894 25.6914 211.181 25.6914C212.468 25.6914 213.513 26.4382 213.513 27.3581Z" fill="#2277F0"/>
<path d="M213.513 27.3581V67.6416C213.513 68.5614 212.468 69.3082 211.181 69.3082C209.894 69.3082 208.849 68.5614 208.849 67.6416V27.3581C208.849 26.4382 209.894 25.6914 211.181 25.6914C212.468 25.6914 213.513 26.4382 213.513 27.3581Z" fill="black" fill-opacity="0.2"/>
<path d="M222.328 42.2331V52.767C222.328 53.6869 221.283 54.4337 219.996 54.4337C218.709 54.4337 217.664 53.6869 217.664 52.767V42.2331C217.664 41.3132 218.709 40.5664 219.996 40.5664C221.283 40.5664 222.328 41.3132 222.328 42.2331Z" fill="#2277F0"/>
<path d="M222.328 42.2331V52.767C222.328 53.6869 221.283 54.4337 219.996 54.4337C218.709 54.4337 217.664 53.6869 217.664 52.767V42.2331C217.664 41.3132 218.709 40.5664 219.996 40.5664C221.283 40.5664 222.328 41.3132 222.328 42.2331Z" fill="black" fill-opacity="0.2"/>
<path d="M231.146 35.9323V59.0673C231.146 59.9871 230.101 60.7339 228.814 60.7339C227.526 60.7339 226.481 59.9871 226.481 59.0673V35.9323C226.481 35.0125 227.526 34.2656 228.814 34.2656C230.101 34.2656 231.146 35.0125 231.146 35.9323Z" fill="#2277F0"/>
<path d="M231.146 35.9323V59.0673C231.146 59.9871 230.101 60.7339 228.814 60.7339C227.526 60.7339 226.481 59.9871 226.481 59.0673V35.9323C226.481 35.0125 227.526 34.2656 228.814 34.2656C230.101 34.2656 231.146 35.0125 231.146 35.9323Z" fill="black" fill-opacity="0.2"/>
<path d="M239.962 39.0124V55.9876C239.962 56.9075 238.917 57.6543 237.63 57.6543C236.343 57.6543 235.298 56.9075 235.298 55.9876V39.0124C235.298 38.0925 236.343 37.3457 237.63 37.3457C238.917 37.3457 239.962 38.0925 239.962 39.0124Z" fill="#2277F0"/>
<path d="M239.962 39.0124V55.9876C239.962 56.9075 238.917 57.6543 237.63 57.6543C236.343 57.6543 235.298 56.9075 235.298 55.9876V39.0124C235.298 38.0925 236.343 37.3457 237.63 37.3457C238.917 37.3457 239.962 38.0925 239.962 39.0124Z" fill="black" fill-opacity="0.2"/>
<path d="M248.775 30.3883V64.6115C248.775 65.5314 247.73 66.2782 246.443 66.2782C245.156 66.2782 244.111 65.5314 244.111 64.6115V30.3883C244.111 29.4685 245.156 28.7217 246.443 28.7217C247.73 28.7217 248.775 29.4685 248.775 30.3883Z" fill="#2277F0"/>
<path d="M248.775 30.3883V64.6115C248.775 65.5314 247.73 66.2782 246.443 66.2782C245.156 66.2782 244.111 65.5314 244.111 64.6115V30.3883C244.111 29.4685 245.156 28.7217 246.443 28.7217C247.73 28.7217 248.775 29.4685 248.775 30.3883Z" fill="black" fill-opacity="0.2"/>
<path d="M257.593 43.8053V51.194C257.593 52.1138 256.548 52.8607 255.26 52.8607C253.973 52.8607 252.928 52.1138 252.928 51.194V43.8053C252.928 42.8855 253.973 42.1387 255.26 42.1387C256.548 42.1387 257.593 42.8855 257.593 43.8053Z" fill="#2277F0"/>
<path d="M257.593 43.8053V51.194C257.593 52.1138 256.548 52.8607 255.26 52.8607C253.973 52.8607 252.928 52.1138 252.928 51.194V43.8053C252.928 42.8855 253.973 42.1387 255.26 42.1387C256.548 42.1387 257.593 42.8855 257.593 43.8053Z" fill="black" fill-opacity="0.2"/>
<path d="M266.408 37.3009V57.6992C266.408 58.619 265.362 59.3658 264.075 59.3658C262.788 59.3658 261.743 58.619 261.743 57.6992V37.3009C261.743 36.3811 262.788 35.6343 264.075 35.6343C265.362 35.6343 266.408 36.3811 266.408 37.3009Z" fill="#2277F0"/>
<path d="M266.408 37.3009V57.6992C266.408 58.619 265.362 59.3658 264.075 59.3658C262.788 59.3658 261.743 58.619 261.743 57.6992V37.3009C261.743 36.3811 262.788 35.6343 264.075 35.6343C265.362 35.6343 266.408 36.3811 266.408 37.3009Z" fill="black" fill-opacity="0.2"/>
<path d="M275.225 30.1686V64.8311C275.225 65.7509 274.18 66.4978 272.893 66.4978C271.606 66.4978 270.561 65.7509 270.561 64.8311V30.1686C270.561 29.2488 271.606 28.502 272.893 28.502C274.18 28.502 275.225 29.2488 275.225 30.1686Z" fill="#2277F0"/>
<path d="M275.225 30.1686V64.8311C275.225 65.7509 274.18 66.4978 272.893 66.4978C271.606 66.4978 270.561 65.7509 270.561 64.8311V30.1686C270.561 29.2488 271.606 28.502 272.893 28.502C274.18 28.502 275.225 29.2488 275.225 30.1686Z" fill="black" fill-opacity="0.2"/>
<path d="M284.038 24.9938V70.0052C284.038 70.925 282.993 71.6719 281.706 71.6719C280.419 71.6719 279.374 70.925 279.374 70.0052V24.9938C279.374 24.074 280.419 23.3271 281.706 23.3271C282.993 23.3271 284.038 24.074 284.038 24.9938Z" fill="#2277F0"/>
<path d="M284.038 24.9938V70.0052C284.038 70.925 282.993 71.6719 281.706 71.6719C280.419 71.6719 279.374 70.925 279.374 70.0052V24.9938C279.374 24.074 280.419 23.3271 281.706 23.3271C282.993 23.3271 284.038 24.074 284.038 24.9938Z" fill="black" fill-opacity="0.2"/>
<path d="M292.853 35.3151V59.6844C292.853 60.6042 291.808 61.3511 290.521 61.3511C289.234 61.3511 288.189 60.6042 288.189 59.6844V35.3151C288.189 34.3953 289.234 33.6484 290.521 33.6484C291.808 33.6484 292.853 34.3953 292.853 35.3151Z" fill="#2277F0"/>
<path d="M292.853 35.3151V59.6844C292.853 60.6042 291.808 61.3511 290.521 61.3511C289.234 61.3511 288.189 60.6042 288.189 59.6844V35.3151C288.189 34.3953 289.234 33.6484 290.521 33.6484C291.808 33.6484 292.853 34.3953 292.853 35.3151Z" fill="black" fill-opacity="0.2"/>
<path d="M301.671 40.2121V54.7878C301.671 55.7076 300.626 56.4544 299.339 56.4544C298.051 56.4544 297.006 55.7076 297.006 54.7878V40.2121C297.006 39.2922 298.051 38.5454 299.339 38.5454C300.626 38.5454 301.671 39.2922 301.671 40.2121Z" fill="#2277F0"/>
<path d="M301.671 40.2121V54.7878C301.671 55.7076 300.626 56.4544 299.339 56.4544C298.051 56.4544 297.006 55.7076 297.006 54.7878V40.2121C297.006 39.2922 298.051 38.5454 299.339 38.5454C300.626 38.5454 301.671 39.2922 301.671 40.2121Z" fill="black" fill-opacity="0.2"/>
<path d="M310.487 43.5446V51.4552C310.487 52.375 309.442 53.1219 308.154 53.1219C306.867 53.1219 305.822 52.375 305.822 51.4552V43.5446C305.822 42.6248 306.867 41.8779 308.154 41.8779C309.442 41.8779 310.487 42.6248 310.487 43.5446Z" fill="#2277F0"/>
<path d="M310.487 43.5446V51.4552C310.487 52.375 309.442 53.1219 308.154 53.1219C306.867 53.1219 305.822 52.375 305.822 51.4552V43.5446C305.822 42.6248 306.867 41.8779 308.154 41.8779C309.442 41.8779 310.487 42.6248 310.487 43.5446Z" fill="black" fill-opacity="0.2"/>
<path d="M319.299 46.4762V48.5236C319.299 49.4434 318.254 50.1902 316.967 50.1902C315.68 50.1902 314.635 49.4434 314.635 48.5236V46.4762C314.635 45.5564 315.68 44.8096 316.967 44.8096C318.254 44.8096 319.299 45.5564 319.299 46.4762Z" fill="#2277F0"/>
<path d="M319.299 46.4762V48.5236C319.299 49.4434 318.254 50.1902 316.967 50.1902C315.68 50.1902 314.635 49.4434 314.635 48.5236V46.4762C314.635 45.5564 315.68 44.8096 316.967 44.8096C318.254 44.8096 319.299 45.5564 319.299 46.4762Z" fill="black" fill-opacity="0.2"/>
</g>
</svg>
